<svg width="195" height="156" viewBox="0 0 195 156" fill="none" xmlns="http://www.w3.org/2000/svg">
<path d="M125.255 75.424C124.871 74.944 124.391 74.944 123.815 75.04C123.335 75.232 122.951 75.424 122.471 75.712C121.703 76.096 120.935 76.48 120.263 76.864C117.479 78.4 114.791 80.128 112.103 81.856C108.647 84.064 105.287 86.368 101.831 88.672C99.623 90.112 97.415 91.648 95.111 93.088C93.863 93.952 92.519 94.72 91.079 95.392C90.503 95.68 89.831 95.968 89.159 96.064C88.775 96.16 88.487 96.064 88.391 95.584C88.295 95.008 88.295 94.336 88.391 93.76C88.487 92.704 88.679 91.744 88.967 90.784C89.159 89.92 89.255 89.152 89.735 88.384V88.096C89.831 87.904 89.831 87.712 89.927 87.52C90.695 85.696 91.751 83.872 92.807 82.048C92.999 81.664 93.287 81.28 93.575 80.992C93.959 80.512 94.343 80.224 94.823 80.224C96.647 79.936 98.087 78.976 99.623 78.016C101.159 76.96 102.503 75.616 103.751 74.272C105.383 72.544 105.287 71.392 103.943 70.048C103.079 69.184 102.119 69.088 100.967 69.472C100.295 69.76 99.527 70.144 98.855 70.528C97.511 71.584 96.167 72.64 95.015 73.888C94.631 74.464 94.151 74.944 93.575 75.328C92.711 75.904 92.039 76.672 91.655 77.632C91.559 78.016 91.367 78.304 91.175 78.592C89.831 80.512 88.583 82.432 87.623 84.448C86.471 86.848 85.511 89.248 85.127 91.84C84.743 94.048 85.223 95.872 86.663 97.408C87.719 98.464 88.967 98.848 90.503 98.752C91.751 98.656 92.903 98.272 94.055 97.696C96.071 96.64 98.087 95.488 100.007 94.144C101.159 93.376 102.311 92.608 103.463 91.744H103.559C104.327 91.072 105.095 90.4 105.863 89.824C107.495 88.48 109.223 87.328 110.855 86.08C112.679 84.832 114.695 83.776 116.423 82.432C117.383 81.856 118.439 81.28 119.399 80.608C121.511 79.168 123.719 77.824 126.119 76.96C126.215 76.192 125.639 75.808 125.255 75.424ZM98.471 72.064L98.759 71.776C99.239 71.2 99.815 70.912 100.487 70.624C100.487 70.624 100.487 70.72 100.583 70.816C100.487 70.912 100.487 71.008 100.487 71.104C100.295 71.296 100.007 71.392 99.719 71.584C99.527 71.776 99.239 71.968 98.951 72.064L98.663 72.256C98.567 72.352 98.471 72.448 98.471 72.544V72.256C98.375 72.256 98.279 72.256 98.183 72.256L98.471 72.064ZM101.735 71.776C100.487 72.64 99.431 73.504 98.183 74.368C99.047 73.12 100.487 72.064 101.735 71.776ZM98.663 72.256C98.663 72.16 98.759 72.16 98.759 72.064C98.759 72.064 98.855 72.064 98.951 72.064L98.759 71.776C98.759 71.872 98.759 71.968 98.663 72.064H98.471C98.471 72.16 98.471 72.16 98.471 72.256H98.663ZM98.183 72.352C98.183 72.352 98.183 72.448 98.183 72.544H97.895C97.991 72.448 98.087 72.352 98.183 72.352ZM98.663 74.752V74.656C98.759 74.656 98.855 74.56 98.855 74.464H98.951C99.527 73.6 100.487 73.024 101.447 72.64C101.543 72.544 101.639 72.544 101.735 72.64C101.831 72.736 101.831 72.928 101.735 73.024C101.063 73.696 100.487 74.368 99.815 74.944C99.431 75.328 98.951 75.616 98.471 76C97.991 76.48 97.415 76.768 96.743 76.864C97.223 76 97.895 75.328 98.663 74.752ZM98.759 74.656H98.663C98.663 74.656 98.759 74.752 98.855 74.752L98.759 74.656ZM101.639 75.904C101.639 75.808 101.735 75.712 101.831 75.712C101.831 75.808 101.735 75.808 101.639 75.904ZM99.239 76.576C98.951 76.864 98.567 77.152 98.087 77.056C98.567 76.576 99.143 76.288 99.623 75.904C99.623 76.192 99.527 76.48 99.239 76.576ZM101.063 76.384C100.775 76.864 100.295 77.248 99.719 77.344C99.719 77.44 99.623 77.536 99.527 77.536C99.623 77.536 99.623 77.44 99.719 77.344C100.103 76.864 100.583 76.576 101.063 76.288C101.063 76.288 101.159 76.192 101.255 76.192C101.255 76.288 101.159 76.288 101.063 76.384ZM122.567 76.384C122.663 76.384 122.759 76.384 122.759 76.48L122.663 76.576H122.471C122.471 76.576 122.567 76.48 122.567 76.384ZM122.375 76.672C122.279 76.768 122.087 76.864 121.991 76.864C122.087 76.672 122.279 76.672 122.375 76.672ZM121.895 76.864C121.799 77.056 121.607 77.056 121.415 77.056L121.895 76.864ZM100.199 90.976C100.487 90.688 100.871 90.4 101.255 90.208C101.543 89.92 101.831 89.728 102.215 89.536C102.695 89.152 103.079 88.768 103.559 88.576C104.231 88 104.999 87.52 105.671 87.136C105.959 86.752 106.343 86.56 106.727 86.368C107.015 86.08 107.399 85.792 107.783 85.696C108.071 85.408 108.455 85.12 108.839 85.024C109.415 84.448 109.991 84.064 110.663 83.776C110.951 83.488 111.335 83.2 111.719 83.104C112.007 82.816 112.199 82.624 112.487 82.624C113.063 82.048 113.639 81.664 114.311 81.376C114.599 81.088 114.791 80.992 115.175 80.896C115.367 80.608 115.655 80.512 115.943 80.416C116.615 79.744 117.383 79.36 118.247 78.976C118.439 78.688 118.727 78.592 119.111 78.496C119.207 78.208 119.495 78.112 119.783 78.016C120.071 77.728 120.263 77.632 120.647 77.536C120.839 77.248 121.127 77.152 121.319 77.056C121.319 77.152 121.319 77.248 121.415 77.344C121.223 77.536 121.031 77.632 120.839 77.824L120.647 77.632C120.647 77.728 120.647 77.728 120.551 77.824C120.455 78.016 120.263 78.112 120.071 78.304C119.783 78.496 119.495 78.592 119.303 78.784L118.439 79.264C118.247 79.456 117.959 79.552 117.671 79.744H117.767C117.479 79.84 117.191 80.032 116.903 80.224H116.999C116.711 80.32 116.423 80.512 116.135 80.704C116.135 80.608 116.039 80.608 115.943 80.512V80.704C115.751 80.896 115.559 80.992 115.367 81.184L115.175 80.992C115.175 81.088 115.175 81.088 115.079 81.184C114.983 81.376 114.791 81.472 114.599 81.664L114.311 81.952C114.023 82.048 113.831 82.24 113.543 82.336H113.255C113.159 82.528 112.967 82.72 112.775 82.816C112.679 82.816 112.679 82.72 112.583 82.624C112.583 82.72 112.583 82.816 112.487 82.912H112.775C112.679 82.912 112.583 83.008 112.487 83.104C112.295 83.2 112.199 83.296 112.007 83.296C111.911 83.296 111.911 83.2 111.815 83.2V83.296C111.815 83.296 111.911 83.296 112.007 83.392C111.911 83.392 111.815 83.488 111.719 83.584C111.527 83.776 111.239 83.968 110.951 84.064L110.663 84.352C110.375 84.448 110.183 84.64 109.895 84.736L109.607 85.024C109.415 85.12 109.319 85.216 109.127 85.216C109.031 85.216 109.031 85.12 108.935 85.12V85.216C108.935 85.216 109.031 85.216 109.127 85.312C109.031 85.312 108.935 85.408 108.839 85.504L108.551 85.792C108.359 85.792 108.263 85.888 108.071 85.984L107.783 86.272C107.591 86.464 107.303 86.656 107.015 86.752C106.919 86.752 106.823 86.848 106.727 86.944C106.535 87.232 106.247 87.424 105.959 87.424L105.671 87.712C105.575 87.712 105.479 87.808 105.479 87.904V87.808H105.383V87.904C105.191 88.192 104.903 88.288 104.615 88.384H104.519V88.48L104.423 88.576L104.327 88.48V88.672C104.135 88.864 103.847 89.056 103.559 89.152C103.463 89.152 103.367 89.248 103.367 89.344C103.367 89.248 103.367 89.152 103.367 89.152L103.079 89.344C103.175 89.344 103.175 89.344 103.271 89.344L102.983 89.632C102.887 89.632 102.695 89.728 102.503 89.824C102.407 89.92 102.407 90.016 102.311 90.016V89.824C102.215 89.92 102.119 90.016 102.023 90.016C102.023 90.112 102.023 90.112 102.023 90.112H102.215C102.215 90.112 102.119 90.208 102.023 90.304V90.112C101.927 90.208 101.831 90.208 101.735 90.304L101.351 90.4C101.351 90.496 101.255 90.496 101.255 90.592C101.159 90.592 101.063 90.688 100.967 90.784H101.255C101.159 90.88 101.063 90.976 100.967 90.976V90.784C100.871 90.88 100.775 90.976 100.679 91.072H100.295C100.199 91.264 100.007 91.36 99.911 91.552C99.719 91.552 99.431 91.648 99.239 91.744C99.431 91.36 99.815 91.168 100.199 90.976ZM123.815 77.344C123.911 77.152 124.103 77.152 124.199 77.152C124.103 77.152 123.911 77.248 123.815 77.344ZM123.047 77.824L122.471 78.112C122.375 78.304 122.183 78.4 121.895 78.592C120.263 79.648 118.535 80.704 116.903 81.664C116.711 81.856 116.519 81.856 116.327 81.952C115.751 82.528 115.175 82.912 114.503 83.2C112.391 84.736 110.375 86.176 108.167 87.52C107.111 88.288 106.151 89.152 105.095 89.92C103.655 90.88 102.311 91.936 100.871 92.896C100.391 93.184 100.007 93.568 99.431 93.664C99.239 93.952 98.951 94.144 98.663 94.144C98.471 94.432 98.183 94.528 97.895 94.624C98.087 94.432 98.375 94.24 98.663 94.144C98.855 93.856 99.047 93.664 99.431 93.664C99.623 93.28 100.103 92.992 100.487 92.704C102.695 91.168 104.903 89.536 107.111 87.904L108.071 87.328C109.607 86.08 111.335 84.928 113.063 83.776C113.447 83.488 113.927 83.296 114.311 83.008C114.887 82.528 115.559 82.144 116.231 81.856C117.959 80.512 119.879 79.456 121.799 78.304C121.991 78.112 122.279 78.112 122.471 78.016C122.663 77.824 122.855 77.824 123.047 77.824C123.239 77.536 123.431 77.344 123.719 77.344C123.623 77.632 123.335 77.728 123.047 77.824ZM98.759 78.016C98.951 77.824 99.143 77.632 99.431 77.632C99.335 77.92 99.047 78.016 98.759 78.016ZM114.311 81.664C114.407 81.664 114.503 81.664 114.599 81.664L114.407 81.472C114.407 81.568 114.407 81.568 114.311 81.664ZM110.663 84.064C110.759 84.064 110.855 84.064 110.951 84.064L110.759 83.872C110.759 83.968 110.759 83.968 110.663 84.064ZM108.551 85.504H108.839C108.839 85.408 108.839 85.408 108.839 85.312L108.551 85.504ZM107.783 85.984C107.879 85.984 107.975 85.984 108.071 85.984L107.879 85.792C107.879 85.888 107.879 85.984 107.783 85.984ZM106.823 86.56V86.656C106.823 86.656 106.919 86.656 107.015 86.752C106.919 86.656 106.919 86.56 106.823 86.56ZM106.727 86.752V86.944C106.823 86.848 106.823 86.848 106.727 86.752ZM105.959 87.424C105.863 87.424 105.863 87.328 105.767 87.328C105.863 87.424 105.863 87.424 105.959 87.424ZM105.479 87.616C105.575 87.616 105.575 87.616 105.671 87.712V87.52C105.575 87.52 105.575 87.616 105.479 87.616ZM103.367 89.152C103.463 89.152 103.463 89.152 103.559 89.152V88.864C103.559 88.96 103.463 89.056 103.367 89.152ZM102.311 89.824H102.503C102.503 89.824 102.407 89.728 102.407 89.632C102.407 89.728 102.311 89.824 102.311 89.824ZM99.143 91.744C99.047 92.032 98.759 92.224 98.471 92.224C98.663 91.936 98.855 91.84 99.143 91.744ZM98.087 92.512C97.895 92.8 97.703 92.896 97.415 92.896C97.607 92.704 97.799 92.512 98.087 92.512ZM97.127 93.184C97.127 93.088 97.223 92.992 97.319 92.992C97.223 93.088 97.127 93.088 97.127 93.184Z" fill="black"/>
<path d="M150.428 75.232C150.044 74.56 149.468 73.984 148.892 73.408C147.836 72.352 146.684 71.968 145.34 72.16C143.9 72.352 142.46 72.832 141.212 73.408C139.196 74.368 137.276 75.328 135.452 76.384C134.012 77.248 132.668 77.92 131.324 78.88C129.596 80.128 127.868 81.184 126.332 82.72L125.372 83.584C125.276 83.68 125.084 83.872 124.892 83.68C124.7 83.488 124.7 83.392 124.7 83.2C124.7 83.008 124.892 82.816 124.892 82.528C124.892 80.608 125.756 78.784 126.044 76.768C126.14 76 126.236 75.232 125.948 74.464C125.756 73.888 125.372 73.504 124.892 73.216C124.7 73.12 124.508 73.12 124.412 73.312L124.124 73.888C123.644 74.848 123.356 75.904 123.068 76.96C122.396 79.264 121.532 81.472 120.764 83.776C119.9 86.464 119.228 89.056 118.364 91.648C118.172 92.224 118.268 92.704 118.748 93.184C118.94 93.376 119.228 93.568 119.324 93.856C119.612 94.624 120.188 94.816 120.86 95.104C121.34 95.296 121.724 95.2 122.108 95.104C122.492 95.008 122.396 94.624 122.492 94.432C122.492 94.432 122.588 94.432 122.684 94.336C122.684 94.24 122.78 94.144 122.876 94.048L123.068 93.856C123.548 92.704 124.316 91.84 125.18 90.976C125.372 90.592 125.66 90.208 125.948 90.016C126.044 90.112 126.044 90.304 126.044 90.496C126.332 90.112 126.62 89.824 126.812 89.536H126.332C126.812 88.864 127.292 88.192 128.06 87.808C128.06 87.712 128.156 87.712 128.156 87.616C128.252 87.52 128.348 87.424 128.348 87.328C128.444 87.328 128.54 87.232 128.636 87.136C128.732 86.848 128.924 86.752 129.212 86.656C129.308 86.56 129.404 86.464 129.404 86.368L129.596 86.176C129.596 86.272 129.596 86.272 129.692 86.368C129.692 86.272 129.692 86.272 129.596 86.176H129.692C129.788 85.696 130.172 85.408 130.652 85.216L130.844 84.928C131.036 84.64 131.324 84.352 131.708 84.256L131.9 83.968C132.092 83.872 132.188 83.776 132.38 83.776C132.38 83.68 132.476 83.584 132.572 83.488H132.476C132.668 83.296 132.86 83.104 133.148 83.008L133.34 82.816C133.532 82.528 133.82 82.432 134.012 82.24C134.204 82.048 134.492 81.952 134.684 81.76C134.78 81.472 135.068 81.376 135.26 81.28V81.376C135.26 81.472 135.356 81.472 135.356 81.568C135.356 81.472 135.452 81.472 135.548 81.376V81.28C135.836 81.184 136.124 80.992 136.412 80.896C136.412 80.896 136.412 80.896 136.412 80.8L136.604 80.608C136.988 80.32 137.564 80.128 137.66 79.744C137.756 79.456 138.044 79.456 138.236 79.36C138.62 79.168 139.004 78.976 139.292 78.784C139.964 78.304 140.636 77.824 141.404 77.44C142.844 76.768 144.284 76 145.82 75.424C146.3 75.232 146.78 75.136 147.356 74.944C148.124 74.656 148.7 74.848 149.468 75.616C149.564 75.712 149.564 75.712 149.66 75.712C149.948 75.712 150.044 76 150.236 75.808C150.428 75.616 150.524 75.424 150.428 75.232ZM143.036 73.888C143.132 73.888 142.844 74.08 142.46 74.08C142.556 73.984 142.748 73.888 143.036 73.888ZM128.732 82.528C128.924 82.144 129.212 81.952 129.596 81.856C129.692 81.568 129.884 81.376 130.172 81.376C130.268 80.992 130.556 80.896 130.748 80.8C130.94 80.608 131.228 80.416 131.42 80.32C131.708 80.032 132.092 79.744 132.476 79.552C132.764 79.264 133.148 78.976 133.628 78.88C134.108 78.4 134.78 77.92 135.548 77.632C137.084 76.672 138.62 75.712 140.348 75.04C140.444 74.848 140.636 74.848 140.828 74.848C141.116 74.464 141.5 74.368 141.98 74.368C142.076 74.176 142.268 74.176 142.364 74.176C142.46 74.176 142.46 74.272 142.46 74.368C142.268 74.368 142.172 74.368 141.98 74.368V74.56C141.692 74.752 141.404 75.04 140.924 74.848V75.04C140.732 75.136 140.636 75.136 140.444 75.136C140.444 75.232 140.444 75.232 140.444 75.328L140.06 75.616V75.52C139.772 75.712 139.676 76 139.388 76.096C139.292 76.192 139.1 76.288 138.908 76.288C138.812 76.48 138.716 76.48 138.524 76.576L138.044 76.768C137.852 77.152 137.468 77.344 136.988 77.44V77.248C136.796 77.344 136.7 77.44 136.604 77.44L136.988 77.536C136.892 77.632 136.7 77.728 136.604 77.728C136.508 77.632 136.508 77.632 136.508 77.536C136.412 77.632 136.22 77.632 136.124 77.728H136.508C136.508 77.92 136.316 77.92 136.124 78.016C136.028 78.112 135.836 78.208 135.74 78.208C135.644 78.112 135.644 78.112 135.644 78.016V78.208C135.452 78.592 135.068 78.784 134.588 78.976C134.492 79.072 134.396 79.168 134.204 79.168C134.012 79.456 133.82 79.552 133.532 79.648C133.436 79.84 133.244 79.84 133.148 79.936C133.052 79.84 133.052 79.744 133.052 79.648L132.668 79.744C132.668 79.84 132.668 79.84 132.572 79.936H133.052C132.956 80.128 132.764 80.32 132.476 80.416C132.38 80.512 132.188 80.608 131.996 80.608C131.996 80.512 131.996 80.416 131.996 80.416H131.612C131.516 80.608 131.42 80.704 131.324 80.896H131.804C131.708 80.992 131.612 81.088 131.42 81.088C131.42 80.992 131.324 80.896 131.324 80.896C131.228 80.896 131.036 80.896 130.94 80.992C130.844 81.088 130.748 81.184 130.748 81.376H131.132C131.036 81.376 130.844 81.472 130.748 81.568C130.748 81.472 130.748 81.376 130.748 81.376H130.268C130.172 81.472 130.076 81.664 130.076 81.856C130.268 81.856 130.364 81.856 130.556 81.856L130.076 82.048C130.076 81.952 130.076 81.856 130.076 81.856H129.596C129.5 81.952 129.5 82.144 129.404 82.336H129.884C129.788 82.528 129.596 82.72 129.308 82.72C129.308 82.72 129.212 82.624 129.212 82.528C129.116 82.528 128.924 82.528 128.828 82.624C128.732 82.624 128.636 82.72 128.636 82.72C128.636 82.624 128.732 82.624 128.732 82.528ZM144.284 75.424C139.964 76.864 136.316 79.744 132.86 82.432C129.5 85.024 126.716 88.096 124.124 91.264C123.74 91.744 123.452 92.32 122.876 92.704H122.78V92.608C122.78 92.224 123.068 91.936 123.26 91.744C126.236 88.768 128.54 85.408 131.804 82.72C134.876 80.128 138.332 78.112 141.98 76.096C143.036 75.52 143.996 75.136 145.148 74.848C144.956 75.136 144.572 75.328 144.284 75.424ZM135.74 77.824V77.92C135.836 77.92 136.028 77.92 136.124 78.016C136.124 77.92 136.124 77.824 136.028 77.728C135.932 77.824 135.836 77.824 135.74 77.824ZM134.108 78.976H134.588C134.588 78.88 134.588 78.784 134.588 78.688L134.108 78.976ZM133.724 78.976C133.724 79.072 133.724 79.168 133.724 79.168H134.204C134.204 79.072 134.108 78.976 134.108 78.976H133.724ZM133.052 79.648H133.532C133.532 79.552 133.532 79.456 133.532 79.36L133.052 79.648ZM131.996 80.416C132.188 80.416 132.284 80.416 132.476 80.416V80.128C132.284 80.224 132.092 80.32 131.996 80.416ZM134.684 82.048V81.76C134.588 81.856 134.684 81.856 134.684 82.048ZM134.684 82.048L134.78 82.144C134.78 82.048 134.684 82.048 134.684 82.048ZM128.54 82.816C128.54 82.912 128.444 83.104 128.444 83.2H127.964C128.06 83.008 128.252 82.816 128.54 82.816ZM133.436 83.008H133.148C133.148 83.104 133.244 83.2 133.244 83.2L133.436 83.008ZM133.052 83.488C133.052 83.392 133.148 83.392 133.244 83.296V83.2C133.148 83.296 133.052 83.392 132.956 83.488H133.052ZM127.676 83.488C127.58 83.776 127.388 83.872 127.1 83.968C127.292 83.776 127.484 83.584 127.676 83.488ZM132.572 83.776L132.956 83.488C132.86 83.488 132.668 83.488 132.572 83.488V83.776ZM132.38 83.968C132.476 83.872 132.476 83.776 132.572 83.776C132.476 83.776 132.38 83.776 132.38 83.776V83.968ZM131.9 84.16C131.9 84.256 131.9 84.256 131.9 84.256L132.38 83.968C132.188 83.968 132.092 83.968 131.9 83.968V84.16ZM131.708 84.448L131.9 84.256C131.804 84.256 131.804 84.256 131.708 84.256V84.448ZM131.708 84.448L131.516 84.736C131.612 84.64 131.708 84.544 131.708 84.448ZM131.324 84.928C131.42 84.832 131.516 84.832 131.516 84.736C131.42 84.736 131.42 84.832 131.324 84.928ZM130.94 85.216C131.036 85.12 131.132 85.024 131.324 84.928H130.844C130.844 85.024 130.94 85.12 130.94 85.216ZM126.236 85.024C126.14 85.216 125.948 85.312 125.66 85.408C125.852 85.216 126.044 85.024 126.236 85.024ZM130.844 85.216H130.652C130.652 85.312 130.748 85.312 130.748 85.408C130.748 85.312 130.844 85.312 130.844 85.216ZM130.364 85.984C130.364 85.888 130.46 85.792 130.46 85.696L130.268 85.984H130.364ZM129.5 86.656C129.596 86.56 129.596 86.464 129.692 86.368H129.404C129.5 86.464 129.5 86.56 129.5 86.656ZM129.308 86.848C129.308 86.752 129.404 86.752 129.5 86.656H129.212C129.212 86.752 129.308 86.752 129.308 86.848ZM129.116 87.136C129.116 87.04 129.212 86.944 129.308 86.848C129.212 86.944 129.116 87.04 129.02 87.136H129.116ZM128.636 87.328C128.828 87.232 128.924 87.232 129.02 87.136C128.924 87.136 128.732 87.136 128.636 87.136V87.328ZM128.444 87.616L128.636 87.328C128.54 87.328 128.444 87.328 128.444 87.328V87.616ZM128.252 87.808L128.444 87.616C128.348 87.616 128.252 87.616 128.252 87.616V87.808ZM128.06 88C128.156 88 128.156 87.904 128.252 87.808C128.156 87.808 128.06 87.808 128.06 87.808V88ZM128.06 88.096C127.964 88.096 127.868 88.192 127.868 88.288C127.868 88.192 127.964 88.192 128.06 88.096ZM127.484 88.768C127.484 88.672 127.58 88.672 127.676 88.576C127.676 88.48 127.772 88.384 127.868 88.288L127.58 88.576C127.58 88.576 127.484 88.672 127.388 88.768L127.196 89.056C127.196 89.056 127.1 89.152 127.004 89.248L127.292 89.056C127.292 88.96 127.388 88.864 127.484 88.768ZM127.004 89.248C127.004 89.344 126.908 89.44 126.812 89.536H126.908C126.908 89.44 127.004 89.344 127.004 89.248ZM126.044 90.496L125.852 90.688C125.948 90.592 126.044 90.592 126.044 90.496ZM124.892 91.936L124.988 91.84H124.892L124.7 92.128C124.796 92.032 124.796 91.936 124.892 91.936ZM124.508 92.416C124.508 92.32 124.604 92.224 124.7 92.128L124.412 92.416C124.412 92.512 124.316 92.512 124.316 92.608C124.412 92.608 124.412 92.512 124.508 92.416ZM124.316 92.608L124.22 92.704C124.316 92.704 124.316 92.608 124.316 92.608ZM124.22 92.704L124.028 92.896C124.028 92.992 123.932 92.992 123.932 93.088L124.124 92.896C124.22 92.8 124.22 92.8 124.22 92.704ZM123.932 93.088L123.74 93.28C123.644 93.376 123.644 93.472 123.548 93.472C123.644 93.472 123.74 93.376 123.74 93.376L123.932 93.088ZM123.452 93.664C123.452 93.664 123.548 93.568 123.548 93.472C123.548 93.568 123.452 93.568 123.452 93.664ZM123.452 93.664C123.356 93.664 123.356 93.76 123.26 93.856C123.356 93.76 123.452 93.76 123.452 93.664ZM123.26 93.856H123.068C123.068 93.952 123.068 93.952 123.068 94.048L123.26 93.856ZM122.876 94.336C122.972 94.24 123.068 94.144 123.068 94.048C122.972 94.048 122.972 94.048 122.876 94.048V94.336ZM122.684 94.336H122.876C122.78 94.24 122.684 94.24 122.684 94.336Z" fill="black"/>
<path d="M194.911 77.152C194.815 76.96 194.719 76.864 194.527 76.768C193.279 75.616 191.935 75.328 190.495 75.712C189.727 75.904 188.959 76.192 188.191 76.48C185.503 77.632 182.911 78.976 180.415 80.416L179.071 81.184C178.975 81.184 178.687 81.184 178.687 81.088C178.591 80.992 178.399 80.704 178.495 80.608C178.879 79.84 178.879 78.976 179.071 78.208C179.263 77.152 179.071 76.192 178.783 75.136C178.687 74.464 178.303 73.792 177.823 73.312C177.151 72.544 176.383 71.968 175.615 71.488C174.175 70.432 172.735 70.24 171.295 70.624C170.911 70.72 170.431 70.912 170.047 71.104C168.607 71.776 167.359 72.832 166.111 73.696C164.383 75.04 162.847 76.672 161.119 78.016C160.159 78.784 159.391 79.552 158.527 80.32C156.991 81.664 155.167 82.72 153.247 83.584C152.863 83.68 152.479 83.968 152.095 83.584C151.711 83.296 151.807 82.912 151.807 82.528C151.711 81.088 152.191 79.84 152.191 78.496C152.191 78.4 152.383 78.208 152.383 78.112C152.479 77.92 152.575 77.728 152.575 77.536L153.055 76.192C153.247 75.616 153.535 75.136 153.823 74.56L154.687 72.64C154.783 72.256 154.783 71.872 154.591 71.488C154.495 71.104 154.207 71.008 153.919 70.816L153.439 70.528C152.959 70.72 152.671 71.008 152.383 71.392C151.519 72.352 150.751 73.504 150.079 74.656C149.119 76.384 148.543 78.208 148.351 80.224C148.063 82.144 148.735 83.776 150.463 85.312C151.615 86.272 152.767 86.752 154.111 86.656C154.879 86.656 155.743 86.464 156.511 86.272C157.759 85.792 158.911 85.216 160.063 84.448L162.367 82.72C163.615 81.856 164.671 80.896 165.727 79.84C166.111 79.456 166.495 79.168 166.975 78.784L170.719 75.808C171.583 74.944 172.639 74.464 173.791 73.888L174.559 73.6C174.943 73.6 175.135 73.792 175.231 74.08V74.848C175.135 75.616 175.135 76.288 175.039 77.056C174.655 79.456 173.887 81.76 173.023 83.968L172.831 84.448C172.543 84.736 172.351 85.024 172.063 85.216L169.951 86.656C167.551 88.096 165.343 89.728 163.135 91.36C161.119 92.896 159.103 94.528 157.087 96.16C155.743 97.216 154.495 98.368 153.151 99.52C150.751 101.536 148.447 103.552 146.335 105.76C144.415 107.776 142.399 109.696 140.575 111.712C139.039 113.44 137.503 115.168 136.063 116.992C134.239 119.296 132.415 121.504 130.783 123.904C129.823 125.44 128.767 126.976 127.903 128.512C126.943 130.144 126.079 131.872 125.311 133.6C124.351 135.712 123.583 137.824 123.199 140.128C123.103 141.088 122.911 142.144 123.007 143.104C123.007 145.12 123.967 146.848 125.983 148L126.559 148.288C127.807 149.056 129.055 149.248 130.303 149.056C132.127 148.96 133.663 148.192 135.103 147.328C136.735 146.272 138.271 145.216 139.615 143.968C140.671 143.008 141.631 142.144 142.591 141.184C143.743 140.128 144.895 139.072 145.855 137.824C147.967 135.424 150.175 133.12 151.903 130.336C151.999 130.144 152.191 130.048 152.287 129.856C152.671 129.376 152.959 128.992 153.343 128.512L156.031 124.672C156.895 123.424 157.663 122.08 158.527 120.832C159.007 120.16 159.391 119.392 159.871 118.72C160.159 118.24 160.351 117.664 160.543 117.088C160.735 116.8 160.831 116.512 161.119 116.32C161.119 116.224 161.119 116.032 161.215 115.936C161.215 116.032 161.215 116.224 161.311 116.32V115.936C161.407 115.744 161.599 115.552 161.695 115.264L161.887 114.976C161.887 115.072 161.983 115.168 161.983 115.264V114.88H161.887L162.655 114.016C162.463 113.536 162.655 113.248 162.943 113.056C162.943 113.152 163.039 113.248 163.039 113.44C163.135 113.248 163.135 113.152 163.231 112.96H162.943C163.039 112.672 163.135 112.48 163.231 112.288L163.903 111.328C163.999 110.944 164.095 110.656 164.383 110.464C164.479 110.176 164.575 109.792 164.863 109.6C164.959 109.312 165.055 109.024 165.343 108.832C165.535 108.544 165.631 108.256 165.727 107.968L166.303 107.104C166.591 106.24 167.071 105.376 167.647 104.704C167.935 104.128 168.319 103.456 168.703 102.88L168.991 102.304C168.991 102.016 169.087 101.824 169.279 101.632C169.471 101.44 169.567 101.152 169.663 100.96C169.855 100.672 170.047 100.384 170.239 100.096H170.143C170.335 99.904 170.431 99.616 170.623 99.424C170.623 99.52 170.623 99.616 170.719 99.808C170.815 99.616 170.911 99.52 170.623 99.328C170.719 98.848 170.911 98.368 171.199 98.08H171.295C171.295 97.504 171.583 97.024 172.063 96.64C172.159 95.776 172.543 95.104 173.119 94.528C173.119 94.336 173.215 94.048 173.407 93.952C173.503 93.28 173.695 92.704 174.175 92.224C174.271 92.032 174.271 91.744 174.367 91.552C174.559 91.072 174.847 90.592 175.039 90.112C175.231 89.824 175.423 89.632 175.519 89.344L175.711 88.864C175.711 89.056 175.711 89.152 175.807 89.248C175.807 89.152 175.807 89.056 175.903 88.96C175.807 88.96 175.711 88.96 175.711 88.864C175.711 88.576 175.711 88.384 175.999 88.288C175.999 88.192 176.095 88 176.095 87.808V87.904L176.287 87.424C176.671 86.752 177.151 86.176 177.823 85.792C178.207 85.504 178.591 85.312 179.071 85.024C182.431 82.816 185.887 80.704 189.535 78.88C190.303 78.496 191.071 78.112 191.935 77.824C192.703 77.536 193.567 77.248 194.527 77.536H194.719C194.911 77.536 195.007 77.248 194.911 77.152ZM169.183 73.024C169.183 73.216 168.991 73.312 168.895 73.312L169.183 73.024ZM161.119 79.936C161.119 79.936 161.119 80.032 161.023 80.032C161.023 80.128 160.927 80.128 160.927 80.128C160.927 80.032 160.927 79.936 160.927 79.936H161.119C161.215 79.552 161.503 79.36 161.791 79.264C161.983 78.976 162.175 78.688 162.559 78.592C162.751 78.4 163.039 78.208 163.231 77.92C164.191 76.96 165.151 76 166.303 75.232L167.071 74.656C167.263 74.464 167.455 74.368 167.551 74.176L168.223 73.792C168.319 73.6 168.511 73.408 168.703 73.408C168.703 73.696 168.511 73.792 168.223 73.888C168.031 73.984 167.935 74.176 167.743 74.272C167.551 74.464 167.359 74.56 167.167 74.752L166.495 75.328C166.303 75.52 166.207 75.712 166.111 75.904L165.535 76.384C165.631 76.384 165.823 76.384 165.919 76.384L165.535 76.48C165.055 76.864 164.575 77.248 163.999 77.632C163.807 77.728 163.615 77.92 163.327 78.112C163.135 78.304 162.847 78.496 162.559 78.688C162.463 78.976 162.175 79.168 161.887 79.36C161.695 79.648 161.503 79.84 161.119 79.936ZM169.855 75.424C167.551 77.344 165.247 79.264 162.943 81.28C162.751 81.472 162.463 81.76 162.079 81.76C162.079 81.856 162.079 81.952 161.983 81.952H161.887V81.856C161.983 81.76 161.983 81.856 162.079 81.76C162.271 81.568 162.559 81.28 162.751 80.992C164.575 79.456 166.495 77.824 168.319 76.192L169.471 75.232C169.759 75.136 170.047 75.04 170.239 74.848C170.143 75.04 170.047 75.232 169.855 75.424ZM176.383 87.904C176.287 87.712 176.287 87.616 176.287 87.424V87.808L176.383 87.904ZM176.191 88.288C176.287 88.096 176.287 88 176.383 87.904H176.095C176.191 88.096 176.191 88.192 176.191 88.288ZM176.095 88.672C176.191 88.48 176.191 88.384 176.191 88.288H175.999C175.999 88.384 176.095 88.48 176.095 88.672ZM175.807 89.344V89.248C175.711 89.248 175.711 89.344 175.711 89.344H175.807ZM169.279 90.976L168.127 91.744C168.319 91.264 168.799 91.072 169.375 90.688C169.375 90.88 169.375 90.976 169.279 90.976ZM167.647 92.032C167.551 92.32 167.455 92.416 167.167 92.416C167.359 92.32 167.455 92.224 167.647 92.032ZM169.087 92.8C168.511 93.952 167.935 95.2 167.359 96.256L161.887 106.24C160.927 107.872 159.871 109.6 158.911 111.232L158.623 111.712C156.991 114.784 155.071 117.76 153.151 120.736C152.191 122.368 151.039 123.904 149.983 125.44C148.735 127.168 147.487 128.992 146.239 130.624C143.935 133.6 141.535 136.288 139.039 138.976C137.215 140.8 135.295 142.432 133.375 143.968C132.127 144.928 130.879 145.696 129.439 146.272C129.055 146.464 128.671 146.56 128.287 146.656C127.903 146.848 127.711 146.656 127.519 146.272C127.327 146.08 127.231 145.792 127.135 145.504L126.943 143.584V143.68C126.751 143.392 126.559 143.104 126.655 142.816C126.655 142.336 126.655 141.856 126.943 141.472C127.039 141.28 127.039 140.992 127.039 140.8C127.039 140.224 127.231 139.84 127.423 139.36C127.423 138.88 127.615 138.496 127.999 138.208V137.728C127.999 137.536 128.095 137.44 128.191 137.248C128.575 136.864 128.767 136.288 128.959 135.712C129.631 134.08 130.495 132.64 131.167 131.104C132.031 130.048 132.607 128.8 133.279 127.648L135.391 124.768C135.679 124.384 135.967 124 136.255 123.616L137.119 122.368C137.791 121.504 138.463 120.64 139.135 119.872L142.975 115.456C143.263 115.168 143.455 114.88 143.743 114.688C145.759 112.48 147.775 110.464 149.887 108.352C150.943 107.392 151.903 106.432 152.863 105.472C153.343 104.992 153.919 104.512 154.495 104.032C155.647 103.072 156.703 102.112 157.855 101.152L163.423 96.448C164.671 95.488 166.015 94.432 167.359 93.472L168.511 92.512C168.607 92.416 168.607 92.416 169.087 92.416V92.8ZM163.039 95.584L163.615 95.2C163.711 94.912 163.903 94.816 164.191 94.816C164.383 94.24 164.863 93.952 165.343 93.664C165.631 93.568 165.823 93.472 166.015 93.28C166.111 93.088 166.303 92.896 166.591 92.896C166.687 92.608 166.879 92.512 167.071 92.512C166.975 92.704 166.783 92.8 166.591 92.896C166.495 93.088 166.303 93.28 166.015 93.28L165.535 93.76C165.151 94.24 164.767 94.624 164.191 94.816C163.999 95.008 163.903 95.2 163.615 95.2C163.423 95.392 163.327 95.584 163.039 95.584C162.751 96.16 162.367 96.448 161.791 96.64C161.503 97.216 161.119 97.504 160.543 97.696C160.735 97.216 161.215 96.832 161.791 96.64C162.079 96.16 162.463 95.776 163.039 95.584ZM162.175 93.856H162.079C162.079 93.856 162.079 93.856 161.983 93.952V93.76C162.079 93.76 162.079 93.76 162.175 93.856ZM160.063 95.392C160.255 95.104 160.447 94.912 160.831 94.816C160.735 95.2 160.447 95.296 160.063 95.392C159.967 95.68 159.775 95.776 159.487 95.776C159.583 95.584 159.775 95.488 160.063 95.392ZM159.487 95.872C159.295 96.16 159.103 96.352 158.815 96.448C158.911 96.16 159.103 95.872 159.487 95.872ZM157.951 97.024L158.047 97.12C157.951 97.12 157.951 97.12 157.951 97.12V97.024ZM170.719 97.408H170.623L170.719 97.312V97.408ZM160.447 97.696C160.351 98.176 159.967 98.368 159.487 98.464C159.775 98.176 160.063 97.888 160.447 97.696ZM156.511 98.272V98.368C156.511 98.368 156.415 98.272 156.511 98.272ZM155.743 98.944C155.743 98.944 155.743 98.944 155.839 98.944V99.04H155.743V98.944ZM158.431 99.424C158.527 99.328 158.527 99.232 158.527 99.232C158.623 99.232 158.623 99.232 158.623 99.232V99.328C158.623 99.328 158.527 99.328 158.431 99.424L158.239 99.616C158.239 99.616 158.239 99.52 158.143 99.52C158.239 99.52 158.335 99.424 158.431 99.424ZM169.567 99.52V99.424C169.663 99.424 169.663 99.52 169.663 99.52H169.567ZM154.399 100.096C154.399 100.192 154.399 100.192 154.399 100.192H154.303C154.303 100.096 154.399 100.096 154.399 100.096ZM170.431 100.192C170.335 100.192 170.335 100.192 170.239 100.096C170.239 100.288 170.239 100.48 170.239 100.672L170.431 100.192ZM155.743 101.728C155.935 101.44 156.127 101.152 156.511 101.056C156.703 100.768 156.991 100.384 157.375 100.192C157.183 100.672 157.183 100.672 156.511 101.056C156.319 101.44 156.127 101.632 155.743 101.728C155.647 102.016 155.455 102.208 154.975 102.4C155.167 101.92 155.455 101.824 155.743 101.728ZM169.951 101.056C169.855 101.056 169.759 100.96 169.663 100.96C169.759 101.056 169.759 101.248 169.759 101.44C169.759 101.344 169.855 101.152 169.951 101.056ZM169.471 102.016C169.471 101.92 169.567 101.824 169.567 101.728H169.375C169.471 101.824 169.471 101.92 169.471 102.016ZM151.999 102.304C151.903 102.592 151.711 102.688 151.519 102.688L151.711 102.4C151.711 102.4 151.807 102.4 151.999 102.304ZM169.183 102.688C169.183 102.592 169.183 102.496 169.279 102.304H169.087C169.087 102.496 169.087 102.592 169.183 102.688ZM150.847 105.952L153.919 103.168C154.015 103.072 154.111 102.976 154.399 102.784C154.303 103.072 154.399 103.168 154.303 103.168C153.151 104.224 151.999 105.28 150.847 106.336L150.559 106.528C149.983 107.296 149.407 107.872 148.639 108.256C149.215 107.488 149.695 106.816 150.559 106.528L150.847 105.952ZM151.519 102.784C151.423 102.976 151.423 103.168 151.039 103.168C151.135 102.88 151.327 102.784 151.519 102.784ZM167.359 103.552C167.455 103.456 167.455 103.36 167.455 103.264C167.455 103.36 167.551 103.36 167.551 103.36C167.455 103.456 167.455 103.552 167.359 103.552ZM166.399 105.28C166.399 105.568 166.303 105.76 166.111 105.856C165.919 106.624 165.631 107.296 164.959 107.776C164.959 107.968 164.863 108.256 164.671 108.352C164.767 108.064 164.863 107.968 164.959 107.776C165.151 107.008 165.535 106.336 166.111 105.856C166.111 105.568 166.207 105.376 166.399 105.28C166.495 104.512 166.975 104.032 167.359 103.648C167.167 104.32 166.975 104.896 166.399 105.28ZM149.023 104.992C149.215 104.608 149.503 104.32 149.887 104.224C149.983 104.128 149.983 103.936 150.079 103.936C150.079 103.84 150.271 103.84 150.271 103.744C150.271 104.032 150.271 104.032 149.887 104.224C149.791 104.608 149.407 104.896 149.023 105.088C148.927 105.472 148.543 105.76 148.159 105.952C148.255 105.472 148.255 105.472 149.023 104.992ZM167.743 104.8L167.647 104.704C167.647 104.704 167.647 104.704 167.647 104.8H167.743ZM146.815 107.104C146.911 106.816 147.103 106.624 147.391 106.528C147.295 106.912 147.295 106.912 146.911 107.2C146.719 107.488 146.431 107.776 145.855 108.064C146.143 107.488 146.431 107.296 146.815 107.104ZM164.191 109.216C164.191 109.6 163.999 109.888 163.711 110.08C163.615 110.368 163.519 110.752 163.327 111.04C161.887 113.632 160.351 116.224 158.815 118.816C157.183 121.408 155.455 124 153.727 126.592C153.439 127.072 152.959 127.456 152.575 127.84C152.575 128.416 152.191 128.8 151.807 129.088C151.903 128.416 151.903 128.416 152.575 127.84C152.767 127.552 152.863 127.168 153.055 126.88C156.127 122.464 158.911 117.76 161.695 113.056C162.079 112.48 162.367 111.904 162.751 111.232C163.039 110.848 163.231 110.368 163.711 110.08C163.711 109.696 163.903 109.408 164.191 109.216C164.287 108.928 164.383 108.544 164.671 108.448C164.671 108.832 164.479 109.024 164.191 109.216ZM145.279 108.544C145.375 108.64 145.375 108.736 145.375 108.736C145.183 108.928 144.991 109.12 144.895 109.312C144.799 109.216 144.799 109.12 144.703 109.12L145.279 108.544ZM146.143 110.656C146.527 110.176 146.911 109.696 147.487 109.408C147.583 109.12 147.775 108.928 148.255 108.736C148.063 109.12 147.871 109.408 147.487 109.408C147.199 109.984 146.815 110.464 146.239 110.752C145.663 111.424 144.991 112.192 144.319 112.864C144.031 113.152 143.743 113.44 143.455 113.632C142.975 114.208 142.591 114.688 142.111 115.168C142.015 115.36 141.823 115.552 141.535 115.648C142.015 114.88 142.591 114.112 143.359 113.632C143.647 113.248 143.839 112.864 144.223 112.576C144.799 111.904 145.471 111.328 146.143 110.656ZM165.343 108.832C165.439 108.928 165.439 109.12 165.439 109.216C165.535 109.12 165.631 108.928 165.343 108.832ZM164.959 110.08L165.151 109.6C165.055 109.696 164.959 109.696 164.959 109.696V110.08ZM144.127 109.888C143.935 110.272 143.743 110.56 143.263 110.752C143.455 110.272 143.743 110.08 144.127 109.888ZM164.767 110.272C164.671 110.368 164.575 110.368 164.383 110.464C164.383 110.656 164.479 110.752 164.479 110.848L164.767 110.272ZM160.831 111.712C160.831 112.192 160.543 112.576 160.255 112.864C160.063 113.152 159.967 113.44 159.775 113.728L159.295 114.496C159.199 114.88 159.007 115.264 158.623 115.36C158.623 115.36 158.623 115.456 158.527 115.552C158.623 115.936 158.431 116.128 158.143 116.416C158.047 116.8 157.855 117.088 157.471 117.28V117.376C157.471 117.76 157.279 118.048 156.991 118.24C156.895 118.72 156.703 119.104 156.319 119.296C156.223 119.776 156.031 120.16 155.551 120.352H155.359C155.647 120.832 155.263 121.12 154.975 121.408L154.879 121.024C154.783 121.216 154.591 121.408 154.783 121.792L154.495 121.984C154.399 122.176 154.399 122.272 154.399 122.464C154.303 122.272 154.303 122.176 154.303 121.984C154.207 122.176 154.111 122.464 154.111 122.656L153.823 123.04C153.823 123.328 153.727 123.424 153.439 123.232C152.959 123.904 152.479 124.576 151.999 125.152C151.711 125.728 151.423 126.208 150.943 126.688C151.039 126.016 151.039 126.016 151.807 125.056L153.343 122.752C155.455 119.2 157.663 115.648 159.775 112.192C160.159 111.616 160.543 111.136 160.831 110.656C160.831 110.56 160.831 110.56 160.927 110.464H161.023V110.56C161.023 110.656 160.927 110.656 160.927 110.752C160.927 110.848 160.831 111.04 160.831 111.232C161.119 111.424 161.119 111.52 160.831 111.712ZM164.287 111.136C164.191 111.136 164.095 111.232 163.903 111.328C163.903 111.424 163.999 111.616 163.999 111.712L164.287 111.136ZM142.687 111.328C142.399 112 142.111 112.384 141.439 112.768C141.631 112.192 142.111 111.712 142.687 111.328ZM160.543 111.904C160.639 111.904 160.735 111.808 160.831 111.712C160.831 111.616 160.831 111.424 160.831 111.328L160.543 111.904ZM163.711 112.096L163.231 112.288C163.327 112.48 163.327 112.576 163.327 112.768L163.711 112.096ZM159.967 112.768H160.159C160.159 112.672 160.159 112.576 160.063 112.384C160.063 112.576 160.063 112.672 159.967 112.768ZM159.583 113.632H159.679C159.679 113.44 159.679 113.344 159.583 113.248V113.632ZM140.575 113.632L140.671 113.728L140.575 113.824C140.479 113.824 140.479 113.728 140.479 113.728C140.479 113.632 140.575 113.632 140.575 113.632ZM159.103 114.4H159.199C159.199 114.304 159.103 114.208 159.103 114.112V114.4ZM139.231 114.976C139.327 115.36 139.135 115.552 138.751 115.552C138.943 115.36 139.135 115.168 139.231 114.976ZM157.951 116.32H158.047C158.047 116.224 158.047 116.128 157.951 115.936V116.32ZM139.615 117.76C139.231 118.528 139.231 118.528 138.655 119.008C138.847 118.432 139.231 118.144 139.615 117.76ZM156.895 118.144V117.856C156.799 117.952 156.799 118.048 156.799 118.24L156.895 118.144ZM156.127 119.296H156.319C156.319 119.2 156.223 119.008 156.223 118.912L156.127 119.296ZM134.431 121.12C134.335 121.312 134.335 121.408 134.143 121.6C134.047 121.312 134.239 121.216 134.431 121.12ZM135.391 122.944C135.487 122.944 135.583 123.04 135.583 123.04C135.487 123.328 135.295 123.616 135.103 123.904C134.911 123.328 135.295 123.232 135.391 122.944ZM132.799 123.04C133.087 123.424 132.703 123.424 132.799 123.808C132.511 123.328 132.799 123.328 132.799 123.04ZM125.695 137.056C125.695 137.248 125.599 137.344 125.599 137.536L125.503 137.92C125.407 138.016 125.311 138.016 125.215 137.92C125.119 138.208 124.927 138.496 124.735 138.688L124.927 137.632C125.695 135.328 126.655 133.12 127.807 130.912C128.383 129.856 129.055 128.8 129.631 127.648C129.823 127.36 130.111 127.072 130.303 126.784L131.647 124.768C131.647 124.672 131.743 124.672 132.031 124.48C131.551 125.44 131.071 126.208 130.495 126.88C130.399 127.168 130.399 127.36 130.399 127.648C130.303 127.84 130.303 127.936 130.207 128.032C130.111 128.224 130.015 128.32 129.919 128.512H129.823C129.727 128.704 129.631 128.896 129.439 129.184H129.343C129.439 129.568 129.247 129.76 128.959 130.048L129.055 129.952C128.959 130.048 128.959 130.144 128.959 130.144C128.863 130.336 128.767 130.432 128.767 130.624C128.671 130.624 128.671 130.72 128.671 130.72C128.575 131.104 128.479 131.296 128.191 131.488C128.095 132.256 127.711 132.928 127.231 133.6C127.231 133.696 127.135 133.792 127.039 133.984C127.039 134.176 127.039 134.464 126.751 134.56C126.751 135.04 126.655 135.328 126.367 135.616C126.271 135.712 126.271 135.904 126.175 136C126.175 136.48 126.079 136.864 125.695 137.056ZM126.175 141.952V142.24C126.175 142.24 126.079 142.24 125.983 142.336C125.983 141.088 126.271 140.032 126.559 138.976C127.231 136.768 128.095 134.656 129.151 132.64C130.399 130.144 131.935 127.744 133.567 125.44C133.663 125.344 133.759 125.248 133.951 125.344C133.855 125.536 133.759 125.728 133.663 125.824C132.127 128.224 130.687 130.624 129.343 133.216C127.999 135.904 126.847 138.784 126.175 141.952ZM150.271 127.648C150.175 127.744 150.079 127.84 149.983 128.032C149.791 127.744 149.983 127.648 150.271 127.648ZM147.775 131.008C148.063 130.336 148.063 130.336 148.639 129.856C148.447 130.336 148.063 130.528 147.775 131.008ZM150.367 131.008C150.367 131.008 150.271 131.008 150.271 130.912C150.367 130.912 150.367 130.912 150.463 130.912L150.367 131.008ZM124.639 139.744H124.447C124.543 139.552 124.639 139.36 124.639 139.264V139.744Z" fill="black"/>
<path d="M94.7288 67.649C94.7288 67.553 94.8248 67.457 94.8248 67.457C94.8248 67.265 94.8248 67.169 94.8248 67.073L94.4408 66.785C93.4808 66.209 92.5208 66.305 91.4648 66.977C91.0807 67.169 90.6968 67.457 90.3128 67.841C88.9688 69.089 87.6248 70.337 86.3768 71.681C85.0328 73.217 83.4967 74.849 82.1527 76.385L78.6968 80.417C77.8328 81.377 77.0648 82.433 76.2008 83.393C74.9528 84.929 73.7048 86.561 72.5527 88.097C71.8808 88.769 71.3047 89.537 70.7288 90.209C70.6328 90.401 70.5368 90.401 70.4408 90.497C70.0567 90.305 70.1527 90.017 70.1527 89.729C70.3447 87.713 70.4408 85.793 70.7288 83.873C71.1128 81.857 71.4007 79.841 71.6888 77.729C71.8808 76.673 72.0728 75.521 72.1688 74.465C72.2648 73.505 71.9767 72.737 71.1127 72.257C70.1527 71.777 69.8648 71.873 69.5768 73.121C69.0967 74.753 68.7128 76.481 68.3288 78.209C67.6568 80.705 67.2728 83.201 67.0807 85.697C66.8887 87.809 66.7927 89.825 66.6967 91.841C66.6007 93.281 66.9847 94.433 67.9447 95.393C68.8087 96.257 70.4408 96.353 71.4967 95.201C72.2647 94.529 72.9368 93.665 73.7048 92.801C73.8008 92.609 73.9928 92.417 74.0888 92.129C74.4728 91.553 74.9527 91.169 75.4327 90.689L78.3128 86.945C78.6008 86.657 78.7927 86.273 78.9847 85.985C79.0807 85.697 79.2728 85.409 79.5608 85.313C79.6568 85.121 79.7527 84.929 79.8487 84.833C79.9447 84.737 79.9447 84.737 80.0407 84.641L80.3288 84.161C80.3288 84.353 80.2327 84.449 80.1367 84.641C80.3288 84.449 80.5208 84.257 80.7128 83.969C80.6168 84.065 80.5208 84.065 80.4248 84.161L80.7128 83.585C81.1927 83.105 81.5768 82.625 81.9608 82.145C82.0568 81.953 82.1527 81.857 82.2487 81.665V82.145C82.2487 81.953 82.3447 81.857 82.3447 81.665C82.4408 81.665 82.5368 81.569 82.6328 81.473C82.6328 81.185 82.7288 80.993 83.0168 80.897C83.1128 80.609 83.3047 80.417 83.5928 80.225C83.6888 80.033 83.8808 79.841 84.0728 79.553C84.6488 78.689 85.4167 77.825 86.1848 76.961C86.3768 76.769 86.5687 76.673 86.8568 76.481C86.8568 76.289 86.9528 76.193 87.0488 76.001C87.0488 76.193 87.1448 76.289 87.1448 76.385V76.001C87.4328 75.809 87.7207 75.521 88.0088 75.137C88.3928 74.561 88.7767 74.081 89.2568 73.601C90.0247 72.641 91.1768 71.969 91.8487 70.817V70.721C92.7127 70.049 93.5768 69.377 94.3447 68.705C94.6328 68.417 94.8248 68.225 95.1128 67.937V67.745C94.9208 67.745 94.8248 67.649 94.7288 67.649ZM79.6568 81.089C79.6568 80.801 79.8487 80.609 80.1367 80.417C80.6167 79.553 81.3848 78.881 82.0567 78.113C82.2487 77.729 82.5368 77.441 82.9208 77.345C82.9208 77.057 83.1127 76.769 83.4007 76.673C83.4967 76.289 83.7848 76.001 84.1688 75.809C84.2648 75.425 84.4567 75.137 84.8408 74.945L85.6087 74.081C85.8008 73.793 86.0888 73.601 86.3768 73.313C86.7607 72.545 87.4327 71.969 88.0088 71.393C89.2568 69.953 90.4088 68.801 91.2728 68.321C91.1768 68.801 91.1768 68.801 90.5048 69.569C90.2168 70.049 89.8327 70.433 89.3528 70.625C89.2568 70.721 89.1608 70.721 89.1608 70.817C88.9688 71.297 88.6808 71.585 88.2008 71.873V71.777L88.1048 71.873H88.0088C88.0088 72.257 87.7207 72.545 87.4327 72.737H87.2408C87.2408 73.121 86.9528 73.313 86.6647 73.601C86.7607 73.409 86.7607 73.217 86.8568 73.121C86.6647 73.217 86.5688 73.313 86.3768 73.313C86.3768 73.505 86.3768 73.601 86.2808 73.793C86.3768 73.697 86.4727 73.697 86.5687 73.697C86.3768 74.081 86.0888 74.369 85.7048 74.657C85.7048 74.465 85.8008 74.369 85.8008 74.177H85.7048L85.4167 74.657C85.5127 74.657 85.6087 74.753 85.6087 74.753C85.5127 74.945 85.4168 75.041 85.2248 75.233C85.3208 75.041 85.3208 74.945 85.3208 74.753L84.9368 75.041C84.8408 75.137 84.7448 75.329 84.6488 75.521C84.7448 75.521 84.8408 75.617 84.9368 75.617L84.4567 76.097C84.5527 75.905 84.5527 75.713 84.6488 75.521C84.4567 75.617 84.2648 75.713 84.1688 75.809L83.8808 76.385C83.9768 76.385 84.0728 76.385 84.1688 76.481C83.9768 76.577 83.8808 76.769 83.7848 76.865C83.7848 76.673 83.8808 76.577 83.8808 76.385C83.7848 76.481 83.5928 76.577 83.4007 76.673C83.4007 76.865 83.3047 76.961 83.3047 77.153C83.4007 77.153 83.4967 77.057 83.5928 77.057C83.4007 77.345 83.2088 77.537 83.0168 77.729C83.0168 77.633 83.1128 77.441 83.2088 77.249C83.1128 77.249 83.0168 77.345 82.9208 77.345C82.8248 77.441 82.7288 77.633 82.7288 77.825C82.7288 77.825 82.8248 77.921 82.9208 77.921C82.7288 78.113 82.5368 78.209 82.4408 78.401C82.4408 78.209 82.5368 78.017 82.6328 77.825C82.4408 78.017 82.3447 78.113 82.1527 78.209C82.1527 78.305 82.1527 78.401 82.0567 78.593C82.1527 78.497 82.2487 78.497 82.3447 78.497C82.1527 78.689 81.9608 78.977 81.7688 79.265C81.7688 79.073 81.8648 78.977 81.8648 78.785C81.7688 78.881 81.5768 79.073 81.4808 79.265C81.4808 79.265 81.5768 79.361 81.6728 79.361C81.4808 79.553 81.2887 79.649 81.1927 79.841C81.1927 79.649 81.2887 79.553 81.3848 79.361L80.8088 80.033C80.9048 80.033 81.0007 79.937 81.0967 79.937C80.9047 80.129 80.8088 80.321 80.7128 80.513C80.7128 80.321 80.8088 80.129 80.8088 80.033L80.1367 80.417C80.1367 80.609 80.1367 80.705 80.0407 80.897C80.1367 80.897 80.2327 80.897 80.3288 80.801C80.2327 80.993 80.1367 81.185 80.0407 81.281V80.897C79.9447 80.897 79.7528 80.993 79.6568 81.089C79.6568 81.185 79.5608 81.377 79.5608 81.473H79.8487C79.7527 81.665 79.6568 81.761 79.4648 81.953C79.5608 81.761 79.5608 81.665 79.5608 81.473C79.4648 81.569 79.2728 81.665 79.0807 81.665L79.6568 81.089ZM92.7128 69.377C88.9688 72.929 85.6087 76.961 82.3447 80.897C79.1768 84.641 76.2007 88.385 73.3207 92.225C72.9367 92.801 72.4568 93.281 72.0728 93.761L71.5928 94.241C71.4967 94.145 71.4967 94.145 71.4967 94.049C71.5928 93.953 71.6888 93.761 71.7848 93.569C76.8727 86.945 82.1527 80.417 87.6247 74.081C89.0648 72.545 90.4088 71.009 91.9448 69.665C92.2328 69.377 92.5208 68.993 93.0007 68.897C93.0007 69.185 92.8088 69.281 92.7128 69.377ZM88.2008 71.489V71.777C88.2968 71.681 88.2968 71.489 88.2968 71.393C88.2968 71.489 88.2008 71.489 88.2008 71.489ZM71.3047 92.129V92.225H71.2087H71.0168C70.9208 92.321 70.9208 92.417 70.9208 92.513C70.9208 92.513 70.9208 92.417 70.9208 92.321L70.6328 92.801C70.5368 92.801 70.4408 92.801 70.3447 92.705C70.3447 92.609 70.3447 92.513 70.4408 92.417C72.4567 89.825 74.4728 87.233 76.5848 84.545L76.7767 84.353C76.9688 84.161 77.1608 83.969 77.2568 83.777C77.4488 83.489 77.6407 83.297 77.8327 83.105C78.1208 82.529 78.5048 82.049 79.1768 81.665C79.0807 81.857 79.0807 81.953 79.0807 82.145H79.3688C79.1768 82.337 79.0808 82.625 78.7928 82.721C78.6968 83.009 78.5048 83.201 78.3128 83.297V83.393C78.3128 83.393 78.2168 83.393 78.2168 83.489L77.7367 83.969C77.6407 84.257 77.5448 84.449 77.2568 84.641C77.0648 84.833 76.9688 85.025 76.7767 85.313C76.5847 85.505 76.3928 85.697 76.2968 85.889C76.1048 86.177 76.0088 86.369 75.7207 86.561C75.6247 86.753 75.5288 87.041 75.2408 87.137C75.0488 87.329 74.9528 87.425 74.8568 87.617H74.5687C74.6647 87.809 74.5687 88.001 74.4727 88.193L73.9928 88.673C73.9928 88.769 73.8968 88.769 73.8968 88.865H73.8008C73.8008 89.057 73.7048 89.153 73.5127 89.249C73.6087 89.153 73.7048 88.961 73.7048 88.769C73.5127 89.057 73.4168 89.249 73.2248 89.441H73.4167C73.3207 89.537 73.2248 89.633 73.2248 89.729C73.2248 89.825 73.1288 89.825 73.1288 89.921H73.0328C72.9368 90.113 72.8408 90.305 72.6488 90.497C72.5527 90.785 72.3608 90.977 72.1688 91.073V91.169H72.0728C71.9768 91.361 71.8808 91.457 71.7848 91.553H71.5928C71.5928 91.841 71.4967 91.937 71.3047 92.129ZM78.5048 82.721H78.7928C78.7928 82.625 78.7928 82.433 78.7928 82.337L78.5048 82.721ZM77.9287 83.201C77.8327 83.297 77.8327 83.489 77.8327 83.585C77.9287 83.489 78.0247 83.489 78.2168 83.489V83.393C78.2168 83.393 78.3128 83.393 78.3128 83.297C78.3128 83.201 78.3128 83.105 78.3128 82.913L77.9287 83.201ZM77.4488 83.873C77.3528 83.969 77.3528 84.065 77.2568 84.161L76.9688 84.449C76.8727 84.641 76.8727 84.737 76.7767 84.833L77.2568 84.641C77.2568 84.449 77.2568 84.353 77.3528 84.257L77.7367 83.969C77.7367 83.873 77.8327 83.681 77.8327 83.585L77.4488 83.873ZM76.6807 85.217C76.7767 85.121 76.7767 84.929 76.7767 84.833C76.7767 84.929 76.6808 85.121 76.5848 85.217H76.6807ZM79.8487 84.833C79.7527 84.929 79.7528 85.121 79.7528 85.217C79.8488 85.121 79.8487 84.929 79.8487 84.833ZM76.2968 85.505C76.2008 85.601 76.2008 85.697 76.1048 85.889L76.2008 85.793C76.2008 85.697 76.2008 85.601 76.2968 85.505ZM75.5287 86.561C75.5287 86.561 75.6247 86.561 75.7207 86.561V86.177C75.6247 86.273 75.6247 86.369 75.5287 86.561ZM74.9528 87.137H75.2408C75.2408 87.041 75.2408 86.849 75.2408 86.753L74.9528 87.137ZM74.0888 88.193C74.1848 88.193 74.3767 88.193 74.4727 88.193V87.713C74.3767 87.905 74.2808 88.001 74.0888 88.193ZM73.7048 88.865H73.8008C73.8968 88.865 73.8968 88.769 73.8968 88.769L73.9928 88.673C73.9928 88.577 73.9928 88.481 73.9928 88.385L73.7048 88.865ZM73.0328 89.921C73.1288 89.921 73.1288 89.825 73.1288 89.825C73.1288 89.825 73.1288 89.825 73.2248 89.729V89.441C73.1288 89.633 73.0328 89.729 72.8408 89.921H73.0328ZM72.4567 90.497H72.6488C72.6488 90.401 72.6488 90.209 72.7448 90.113L72.4567 90.497ZM71.8808 91.169C71.9768 91.169 71.9768 91.169 72.0728 91.169L72.1688 91.073C72.1688 90.977 72.1688 90.881 72.1688 90.689L71.8808 91.169ZM71.2087 92.225L71.3047 92.129C71.3047 92.033 71.4007 91.937 71.4007 91.745C71.4007 91.937 71.3047 92.033 71.2087 92.225Z" fill="black"/>
<path fill-rule="evenodd" clip-rule="evenodd" d="M51.168 103.649L51.744 100.577L52.32 97.985L54.624 87.137C54.816 86.273 55.104 85.313 55.392 84.353C55.6545 83.2506 55.8883 82.1195 56.1247 80.9754C56.3207 80.0272 56.5185 79.0701 56.736 78.113C56.8037 77.8421 56.8595 77.5593 56.916 77.273C57.0196 76.7475 57.1256 76.2101 57.312 75.713C57.632 74.817 57.8667 73.921 58.1013 73.025C58.2187 72.577 58.336 72.129 58.464 71.681C58.5312 71.1437 58.6923 70.6535 58.8488 70.1773C58.916 69.9728 58.9823 69.7709 59.04 69.569C59.424 67.937 59.808 66.305 60.288 64.673L60.3867 64.321L60.4871 63.9639C61.091 61.8157 61.6795 59.7223 62.112 57.473C62.112 57.3324 62.1634 57.2433 62.2287 57.1304C62.2526 57.089 62.2783 57.0444 62.304 56.993C62.3611 56.7645 62.4522 56.5701 62.5368 56.3894C62.5945 56.2663 62.6491 56.1497 62.688 56.033C62.75 55.7232 62.8419 55.4134 62.9348 55.1004C63.1298 54.4434 63.329 53.7722 63.264 53.057C63.264 52.961 63.288 52.889 63.312 52.817C63.336 52.745 63.36 52.673 63.36 52.577C63.456 52.289 63.528 52.001 63.6 51.713C63.672 51.425 63.744 51.137 63.84 50.849C63.84 50.561 63.936 50.273 64.032 49.985C64.224 49.217 64.416 48.449 64.8 47.777C64.992 47.521 65.0987 47.1797 65.2053 46.8383C65.2587 46.6677 65.312 46.497 65.376 46.337C65.4705 45.8961 65.534 45.4551 65.597 45.0176C65.726 44.1215 65.853 43.2396 66.24 42.401C66.432 42.209 66.432 41.921 66.432 41.633C66.336 41.153 66.528 40.769 66.816 40.385C67.008 40.097 67.2 39.713 67.2 39.425C67.136 39.105 67.2427 38.8703 67.3493 38.6357C67.4027 38.5183 67.456 38.401 67.488 38.273C67.392 37.985 67.392 37.793 67.488 37.505C67.5264 37.3322 67.561 37.1594 67.5955 36.9866C67.7338 36.2954 67.872 35.6042 68.256 34.913V35.009L68.544 33.569C68.9402 33.3313 69.0094 32.8974 69.0754 32.4833C69.0894 32.3956 69.1032 32.3088 69.12 32.225C68.928 31.745 68.928 31.169 69.504 30.785C69.6 30.785 69.6 30.497 69.6 30.401V29.921C69.6 29.633 69.6 29.345 69.696 29.057C69.984 27.713 70.272 26.369 70.656 24.929C70.7299 24.6037 70.8039 24.2762 70.8781 23.947L70.8803 23.9375C71.2876 22.1326 71.7056 20.2806 72.192 18.497C72.24 18.257 72.312 18.041 72.384 17.825C72.456 17.609 72.528 17.393 72.576 17.153C72.576 16.865 72.576 16.673 72.672 16.385L73.536 10.817L73.5677 10.5607C73.6542 9.85931 73.7491 9.09015 73.92 8.32099C74.112 7.45699 74.208 6.59299 74.112 5.72899C74.112 5.441 74.112 5.057 74.016 4.76899C73.92 2.94499 73.248 1.505 71.424 0.832999C69.792 0.16099 68.256 -0.319009 66.432 0.256995C65.568 0.448992 64.8 0.832999 64.032 1.313C62.304 2.46499 60.864 3.90499 59.424 5.34499C57.6306 7.27633 55.9859 9.30679 54.3475 11.3295C53.7055 12.122 53.0646 12.9133 52.416 13.697L52.224 13.985L48.48 19.169L44.16 25.217C43.7546 25.8386 43.3492 26.4678 42.9417 27.1004C41.9016 28.7147 40.8476 30.3506 39.744 31.937L38.496 34.049C37.728 35.201 36.96 36.449 36.288 37.697L34.656 40.289C34.2922 40.9126 33.9285 41.5291 33.5666 42.1425C32.5915 43.7952 31.6302 45.4246 30.72 47.105C29.184 49.793 27.744 52.481 26.304 55.169C25.8242 56.1286 25.3337 57.0883 24.8432 58.0479L24.8427 58.0489C23.8614 59.969 22.88 61.889 21.984 63.809L20.832 66.113L18.432 71.105C16.512 75.329 14.592 79.553 12.864 83.873L10.272 89.921C8.64 94.049 7.008 98.177 5.568 102.305C5.49389 102.676 5.36256 102.989 5.21819 103.333C5.17555 103.435 5.13178 103.54 5.088 103.649L3.84 107.393L3.264 109.217C1.92 112.865 1.056 116.705 0.288 120.449C0.16 120.833 0.117334 121.217 0.074667 121.601C0.0533333 121.793 0.0319996 121.985 0 122.177V123.425C0.0959998 123.809 0.288 124.001 0.576 124.097C0.96 124.193 1.248 124.193 1.536 123.809C0.906919 122.641 0.950871 122.566 1.51034 121.616L1.57674 121.503L1.632 121.409C1.728 121.313 1.728 121.217 1.728 121.121C1.55391 120.86 1.6166 120.678 1.70137 120.431C1.71009 120.406 1.71905 120.38 1.728 120.353L2.016 119.489H1.92C2.016 119.297 2.112 119.201 2.208 119.489L2.784 118.049C3.7334 114.856 4.91559 111.74 6.12128 108.562L6.1217 108.561C6.25694 108.204 6.39247 107.847 6.528 107.489C6.528 107.393 6.576 107.297 6.624 107.201C6.672 107.105 6.72 107.009 6.72 106.913L8.10276 103.415C8.14674 103.196 8.24937 102.99 8.352 102.785C8.77584 101.74 9.19135 100.694 9.6059 99.6511C10.5998 97.1504 11.5881 94.6638 12.672 92.225C13.4675 90.3499 14.2966 88.5084 15.1196 86.6807C15.687 85.4204 16.2515 84.1667 16.8 82.913L19.392 77.249C20.064 75.857 20.76 74.489 21.456 73.1211C22.152 71.753 22.848 70.385 23.52 68.993C23.568 68.945 23.592 68.873 23.616 68.801C23.64 68.729 23.664 68.657 23.712 68.609C25.1112 65.5159 26.7365 62.5359 28.371 59.5388C28.8671 58.629 29.3642 57.7176 29.856 56.801C30.72 55.073 31.584 53.345 32.544 51.617C33.024 50.849 33.504 50.081 33.984 49.217L35.712 46.241C36.448 45.025 37.1733 43.809 37.8987 42.593C39.3493 40.161 40.8 37.729 42.336 35.297C43.536 33.473 44.736 31.697 45.936 29.921C47.136 28.145 48.336 26.369 49.536 24.545C52.32 20.513 55.392 16.577 58.464 12.737C60.672 9.953 63.072 7.16899 65.76 4.86499C66.624 4.097 67.488 3.521 68.352 2.94499C68.64 2.753 68.928 2.561 69.312 2.753C69.696 3.521 69.792 4.38499 69.792 5.24899C69.792 8.41699 69.408 11.393 68.736 14.465C68.496 15.665 68.208 16.865 67.92 18.065C67.632 19.265 67.344 20.465 67.104 21.665C66.8322 23.1327 66.4373 24.5695 66.0413 26.0105C65.7379 27.1144 65.4339 28.2207 65.184 29.345C64.896 30.497 64.56 31.649 64.224 32.801C63.888 33.953 63.552 35.105 63.264 36.257C62.496 39.041 61.824 41.825 61.152 44.609L59.424 50.369L58.848 52.577C58.6027 53.4763 58.3749 54.3582 58.1496 55.2301C57.8458 56.4059 57.5467 57.5634 57.216 58.721C56.736 60.593 56.232 62.4411 55.728 64.2891C55.224 66.1371 54.72 67.985 54.24 69.857C53.952 70.961 53.688 72.089 53.424 73.217C53.16 74.345 52.896 75.473 52.608 76.577C52.5629 76.7724 52.5178 76.9703 52.4723 77.1697C52.2274 78.2436 51.9719 79.3644 51.648 80.417C51.3907 81.5748 51.1143 82.7325 50.8358 83.8989C50.4908 85.3437 50.1427 86.8017 49.824 88.289L48.096 96.353C47.712 98.465 47.328 100.577 46.848 102.689C46.848 102.881 46.848 102.977 46.752 103.169L45.888 107.201C45.888 107.345 45.864 107.489 45.84 107.633C45.816 107.777 45.792 107.921 45.792 108.065C44.832 113.249 43.872 118.433 43.008 123.617C42.7997 125.127 42.5631 126.638 42.329 128.133C42.1315 129.393 41.9357 130.643 41.76 131.873C41.6012 132.879 41.4131 133.885 41.2281 134.875C41.0776 135.68 40.9292 136.474 40.8 137.249L39.936 144.833C39.6693 146.878 39.4849 149.005 39.3066 151.062L39.264 151.553C39.264 152.033 39.288 152.513 39.312 152.993C39.336 153.473 39.36 153.953 39.36 154.433C39.456 155.297 39.84 155.585 40.704 155.585C40.9319 155.585 41.0997 155.645 41.3024 155.718L41.3037 155.718C41.3568 155.737 41.4123 155.757 41.472 155.777C41.952 155.969 42.336 155.969 42.624 155.393C42.72 155.297 43.008 155.297 43.2 155.297V154.433V153.569C43.296 152.801 43.392 152.033 43.392 151.169C43.44 150.977 43.44 150.785 43.44 150.581C43.44 150.377 43.44 150.161 43.488 149.921C43.536 149.201 43.608 148.505 43.68 147.809C43.752 147.113 43.824 146.417 43.872 145.697C43.872 144.658 44.0476 143.664 44.2206 142.683C44.3035 142.214 44.3858 141.747 44.448 141.281C44.635 139.723 44.9028 138.206 45.1728 136.676C45.3187 135.849 45.4653 135.019 45.6 134.177L46.176 130.529C46.272 129.665 46.464 128.801 46.656 127.937L47.52 122.849C47.664 121.937 47.832 121.025 48 120.113C48.168 119.201 48.336 118.289 48.48 117.377C48.9665 115.107 49.3845 112.837 49.7918 110.624C49.8668 110.217 49.9414 109.812 50.016 109.409C50.208 108.737 50.304 108.161 50.4 107.585L51.1497 103.743C51.1538 103.713 51.1599 103.682 51.168 103.649ZM50.112 103.457C50.304 103.265 50.4 102.977 50.496 102.689C50.6143 102.127 50.7235 101.574 50.832 101.025C51.0757 99.7912 51.3159 98.5751 51.648 97.313C52.608 92.705 53.664 88.001 54.816 83.393C56.064 78.017 57.408 72.641 58.848 67.265C60.768 59.873 62.784 52.385 64.896 44.897C66.72 38.273 68.544 31.649 70.176 25.025C70.512 23.633 70.824 22.241 71.136 20.849C71.448 19.457 71.76 18.065 72.096 16.673L72.384 14.753C72.288 14.753 72.192 14.753 72.192 14.657C72.1482 14.8102 72.1045 14.9584 72.0618 15.1028C71.9174 15.5916 71.7861 16.0363 71.712 16.481C70.56 21.665 69.312 26.753 67.872 31.937C66.5281 37.2165 65.0883 42.496 63.6484 47.7756L63.648 47.777C62.208 52.961 60.768 58.145 59.424 63.425C58.464 66.881 57.6 70.337 56.736 73.793C55.3921 79.0726 54.1442 84.3522 52.8963 89.6317L52.896 89.633C52.512 91.3609 52.152 93.0889 51.792 94.8168C51.432 96.5449 51.072 98.2729 50.688 100.001C50.496 100.961 50.304 102.017 50.208 102.977C50.112 103.169 50.112 103.265 50.112 103.457ZM49.248 98.369C49.152 98.849 48.96 99.233 48.768 99.617V100.193C48.768 100.097 48.672 100.097 48.672 100.097C48.672 100.057 48.6885 100.001 48.7078 99.9351C48.7351 99.8419 48.768 99.7295 48.768 99.617C48.813 99.3919 48.8369 99.188 48.8595 98.9953C48.8851 98.7769 48.909 98.573 48.96 98.369C49.2358 97.0654 49.505 95.7553 49.7745 94.4438C50.537 90.7328 51.3019 87.0105 52.224 83.393C54.048 75.905 55.872 68.417 57.792 61.025C59.0694 56.1709 60.4012 51.3439 61.7295 46.5297C62.8968 42.2989 64.0614 38.078 65.184 33.857C65.8928 31.317 66.529 28.7771 67.1595 26.2595C67.5537 24.6854 67.9458 23.1201 68.352 21.569L69.216 18.401C69.216 18.305 69.312 18.113 69.408 18.017C69.5392 18.1482 69.4911 18.3242 69.4475 18.4838C69.4273 18.5578 69.408 18.6282 69.408 18.689C69.3541 18.7968 69.3305 18.9046 69.3031 19.0295C69.2817 19.1269 69.2581 19.2347 69.216 19.361L68.928 21.377H69.12C69.12 21.377 69.12 21.281 69.216 21.185C69.216 21.2258 69.216 21.2492 69.2086 21.2701C69.1987 21.2983 69.1752 21.3218 69.12 21.377C69.068 21.5329 69.0442 21.6888 69.018 21.86C68.9959 22.005 68.972 22.1609 68.928 22.337L68.64 23.201C68.64 24.161 68.448 25.121 67.968 25.985C67.968 26.273 67.968 26.657 67.776 26.945C67.776 27.233 67.776 27.521 67.488 27.809C67.296 29.345 67.008 30.881 66.336 32.225C66.336 32.609 66.24 33.089 66.144 33.473C65.664 35.345 65.16 37.217 64.656 39.089C64.152 40.961 63.648 42.833 63.168 44.705C62.976 45.089 62.784 45.473 62.688 45.857C62.592 46.721 62.4 47.585 61.92 48.353H62.016C62.016 48.929 61.824 49.505 61.536 49.985C61.44 50.945 61.344 51.809 60.768 52.577C60.864 52.865 60.768 53.153 60.576 53.441C60.576 54.017 60.48 54.593 60.096 55.073L60.0886 55.1396C59.9948 55.986 59.8917 56.9167 59.424 57.665C59.424 57.953 59.424 58.241 59.232 58.529L58.944 59.489C58.944 59.489 58.848 59.585 58.848 59.681C58.752 59.585 58.752 59.489 58.752 59.489L58.464 60.353C58.464 60.353 58.464 60.449 58.56 60.449V60.545C58.656 60.641 58.656 60.833 58.56 60.929V61.121H58.464C58.464 61.409 58.368 61.697 58.272 61.985L58.08 62.177V61.985L57.792 62.849C57.792 63.233 57.696 63.521 57.6 63.809C57.504 64.097 57.408 64.385 57.408 64.769C57.024 65.249 56.928 65.825 56.928 66.401H57.12C57.0607 66.401 57.038 66.4377 57.0067 66.4883C56.9873 66.5197 56.9647 66.5563 56.928 66.593V66.401C56.544 67.553 56.16 68.801 55.968 70.049C55.776 70.337 55.776 70.529 55.968 70.817V70.913C55.776 71.201 55.584 71.585 55.392 71.969L55.104 73.025C55.056 73.217 55.008 73.433 54.96 73.649C54.912 73.865 54.864 74.081 54.816 74.273L54.528 75.329C54.432 75.713 54.432 76.001 54.624 76.385C54.576 76.433 54.552 76.505 54.528 76.577C54.504 76.649 54.48 76.721 54.432 76.769C54.144 76.865 54.144 77.153 54.144 77.441L53.856 78.401C53.76 78.593 53.76 78.881 53.856 79.073C53.856 79.265 53.856 79.361 53.76 79.457C53.472 79.649 53.472 79.937 53.472 80.225L53.184 81.089C53.136 81.329 53.064 81.569 52.992 81.809C52.92 82.049 52.848 82.289 52.8 82.529C52.736 82.785 52.672 83.0383 52.6085 83.2898L52.6071 83.2951C52.2898 84.551 51.9837 85.7628 51.744 87.041C51.648 87.329 51.648 87.713 51.648 88.001C51.3398 89.0026 51.0935 90.0042 50.8593 90.9562C50.8017 91.1904 50.7449 91.4215 50.688 91.649C50.3178 93.1296 50.027 94.5706 49.739 95.9975L49.7386 95.9991C49.5786 96.792 49.4194 97.5805 49.248 98.369ZM38.496 36.449V36.353L38.4 36.449H38.496ZM40.416 37.025C40.32 37.025 40.32 36.929 40.32 36.929C40.32 36.929 40.224 37.025 40.128 37.025L40.224 37.121C40.2648 37.121 40.2883 37.121 40.3091 37.1136C40.3373 37.1037 40.3608 37.0802 40.416 37.025ZM39.456 38.081C39.36 38.273 39.264 38.561 39.264 38.753C39.2767 38.7403 39.2893 38.7281 39.3018 38.7162L39.3376 38.6826C39.4992 38.5314 39.6232 38.4154 39.456 38.081ZM39.072 38.945C39.072 39.233 38.976 39.425 38.688 39.809C38.688 39.425 38.88 39.137 39.072 38.945ZM35.904 44.225C36 43.937 36.192 43.745 36.384 43.553C36.288 43.649 36.216 43.769 36.144 43.889C36.072 44.009 36 44.129 35.904 44.225C35.8783 44.2765 35.8526 44.321 35.8287 44.3624C35.7637 44.475 35.7124 44.5638 35.712 44.7036C35.7125 44.512 35.8082 44.3208 35.904 44.225ZM33.984 47.489L34.08 47.393C34.1752 47.2027 34.3646 47.0124 34.5549 46.8221L33.984 47.393V47.489ZM32.832 49.601C32.736 50.081 32.544 50.369 32.16 50.657C32.352 50.273 32.544 49.889 32.832 49.601ZM28.032 58.241C28.32 58.049 28.416 57.857 28.512 57.569C28.4605 57.6462 28.416 57.7165 28.3746 57.7817C28.2617 57.9599 28.1726 58.1004 28.032 58.241ZM25.344 59.681H25.248V59.777L25.344 59.681ZM25.92 62.753L26.88 60.641L26.208 61.601C25.9658 61.9643 25.8 62.3657 25.6383 62.7572C25.5436 62.9864 25.4504 63.2123 25.344 63.425C25.536 63.233 25.728 63.041 25.92 62.753ZM22.752 64.769C22.848 64.673 22.944 64.481 22.944 64.289C23.04 64.193 23.136 64.001 23.136 63.809L23.232 63.713V63.809L22.944 64.385C22.944 64.481 22.848 64.673 22.752 64.769C22.656 64.961 22.56 65.153 22.56 65.249C22.56 65.1084 22.6114 65.0193 22.6767 64.9064C22.7006 64.865 22.7263 64.8204 22.752 64.769ZM24.384 65.441V65.537L24.206 65.7743C24.1693 65.8337 24.1327 65.8843 24.096 65.921L24.206 65.7743C24.2653 65.6783 24.3247 65.5597 24.384 65.441ZM22.272 65.729L22.08 66.209C22.08 66.017 22.176 65.825 22.272 65.729ZM19.968 74.465C20.064 74.369 20.16 74.177 20.256 73.985V74.081C20.208 74.129 20.16 74.201 20.112 74.273C20.064 74.345 20.016 74.417 19.968 74.465L19.776 74.945C19.776 74.8044 19.8274 74.7153 19.8927 74.6024C19.9166 74.561 19.9423 74.5164 19.968 74.465ZM17.664 79.457H17.568V79.553H17.664V79.457ZM48.48 101.633C48.384 102.785 48.384 102.785 48 103.553C48 102.497 48.096 102.305 48.48 101.633ZM47.04 109.025C46.944 108.449 46.944 108.065 47.232 107.585C47.232 108.065 47.232 108.545 47.04 109.025ZM48.384 113.057L47.808 116.801C47.7514 117.126 47.6948 117.454 47.6379 117.783C47.3087 119.688 46.9693 121.653 46.56 123.617C46.464 124.289 46.272 125.057 46.08 125.729C46.08 127.084 45.825 128.354 45.555 129.699L45.504 129.953C45.2574 131.844 44.9404 133.735 44.6132 135.686L44.5522 136.05C44.5175 136.257 44.4828 136.464 44.448 136.673C44.0212 139.49 43.6703 142.307 43.3278 145.056L43.2 146.081C43.008 147.617 42.9013 149.153 42.7947 150.689L42.7946 150.691C42.7413 151.458 42.688 152.226 42.624 152.993V154.049C42.24 154.049 42.24 153.665 42.24 153.569C42.288 152.849 42.312 152.153 42.336 151.457C42.36 150.761 42.384 150.065 42.432 149.345C42.8015 144.819 43.5265 140.381 44.265 135.862L44.352 135.329L45.504 127.649C45.6 126.977 45.696 126.305 46.08 125.729C46.08 125.057 46.08 124.481 46.272 123.809L48 114.113C48.048 113.921 48.12 113.753 48.192 113.585C48.264 113.417 48.336 113.249 48.384 113.057C48.384 112.577 48.384 112.193 48.576 111.809C48.672 111.329 48.744 110.825 48.816 110.321C48.888 109.817 48.96 109.313 49.056 108.833C49.056 108.641 49.152 108.449 49.248 108.353C49.248 109.505 49.056 110.753 48.576 111.809C48.576 112.193 48.576 112.673 48.384 113.057ZM45.6 116.417C45.696 115.169 45.792 114.017 46.272 112.769C46.368 111.617 46.464 110.465 46.944 109.313C46.944 110.465 46.656 111.713 46.272 112.769C46.2584 112.946 46.2467 113.122 46.2351 113.299C46.1645 114.368 46.0945 115.428 45.6 116.417C45.6 116.897 45.6 117.377 45.408 117.857C45.408 118.529 45.408 119.201 44.928 120.065C44.928 119.105 45.024 118.529 45.408 117.857C45.312 117.377 45.408 116.897 45.6 116.417ZM3.264 111.329L3.36 111.233V111.137C3.36 111.233 3.264 111.329 3.264 111.329ZM2.4 114.305L2.496 114.209V114.017C2.496 114.113 2.496 114.113 2.4 114.209V114.305ZM1.248 118.337V119.201C1.104 119.777 0.984001 120.353 0.864 120.929C0.743999 121.505 0.624001 122.081 0.48 122.657C0.288 122.273 0.384 121.793 0.48 121.313C0.493446 121.246 0.506893 121.177 0.520603 121.106C0.604776 120.674 0.698895 120.19 0.864 119.777C0.912001 119.537 0.984001 119.297 1.056 119.057C1.128 118.817 1.2 118.577 1.248 118.337C1.248 117.473 1.536 116.609 2.016 115.841C1.99036 115.969 1.96643 116.094 1.94308 116.216C1.79152 117.006 1.6639 117.672 1.248 118.337ZM41.76 141.377C41.664 141.953 41.664 142.433 41.664 143.009C41.4467 143.661 41.3933 144.368 41.339 145.088C41.3213 145.322 41.3036 145.557 41.28 145.793C41.184 146.177 41.184 146.561 41.184 146.945L41.1868 146.948C41.2387 147.002 41.262 147.085 41.2889 147.181C41.3103 147.257 41.3339 147.341 41.376 147.425H41.28C41.28 147.235 41.28 147.045 41.1868 146.948L41.184 146.945C40.992 147.521 40.992 148.097 41.088 148.673C41.184 149.441 41.184 150.113 40.992 150.881C40.992 150.497 40.992 150.209 40.896 149.921H40.8C40.8 150.257 40.824 150.593 40.848 150.929C40.872 151.265 40.896 151.601 40.896 151.937C40.896 152.097 40.9067 152.257 40.9173 152.417C40.9387 152.737 40.96 153.057 40.896 153.377C40.896 153.496 40.8227 153.578 40.7213 153.691C40.6587 153.761 40.5853 153.843 40.512 153.953C40.416 153.761 40.32 153.569 40.32 153.473C40.32 153.309 40.3088 153.146 40.2979 152.986C40.2769 152.677 40.2567 152.382 40.32 152.129C40.495 149.679 40.7498 147.308 41.0116 144.872L41.088 144.161C41.2568 142.388 41.4999 140.615 41.752 138.777C41.7865 138.525 41.8213 138.272 41.856 138.017C42 137.057 42.168 136.097 42.336 135.137C42.504 134.177 42.672 133.217 42.816 132.257C42.816 132.077 42.8906 131.935 42.9701 131.784C43.0181 131.692 43.0679 131.597 43.104 131.489C43.008 130.529 43.104 129.569 43.488 128.705C43.488 127.759 43.6538 126.854 43.822 125.936C43.9097 125.457 43.9982 124.975 44.064 124.481C44.16 123.809 44.256 123.233 44.448 122.561C44.448 122.369 44.544 122.177 44.64 121.985C44.6071 122.215 44.5855 122.457 44.5635 122.702C44.5214 123.172 44.4782 123.655 44.352 124.097C44.16 125.345 43.968 126.593 43.776 127.937L43.488 128.705C43.488 129.665 43.392 130.625 43.104 131.489C43.056 131.777 43.032 132.089 43.008 132.401C42.984 132.713 42.96 133.025 42.912 133.313L41.76 141.377ZM72.576 12.353C72.6244 12.595 72.6484 12.715 72.6234 12.8237C72.5988 12.9306 72.5268 13.0266 72.384 13.217C72.4379 13.0553 72.4616 12.9238 72.4889 12.7716C72.5103 12.6528 72.5339 12.5214 72.576 12.353ZM49.344 108.065C49.334 108.045 49.324 108.026 49.3144 108.008C49.2321 107.852 49.1821 107.757 49.44 107.585C49.519 107.743 49.468 107.836 49.394 107.971C49.378 108 49.361 108.031 49.344 108.065ZM44.736 121.217C44.8896 121.371 44.7974 121.524 44.7053 121.678C44.6822 121.716 44.6592 121.755 44.64 121.793C44.6811 121.711 44.6694 121.628 44.6576 121.546C44.642 121.436 44.6263 121.327 44.736 121.217Z" fill="black"/>
</svg>
