<svg width="195" height="156" fill="none" xmlns="http://www.w3.org/2000/svg"><path d="M125.255 75.424c-.384-.48-.864-.48-1.44-.384-.48.192-.864.384-1.344.672-.768.384-1.536.768-2.208 1.152-2.784 1.536-5.472 3.264-8.16 4.992-3.456 2.208-6.816 4.512-10.272 6.816-2.208 1.44-4.416 2.976-6.72 4.416a27.486 27.486 0 0 1-4.032 2.304c-.576.288-1.248.576-1.92.672-.384.096-.672 0-.768-.48a5.812 5.812 0 0 1 0-1.824 14.85 14.85 0 0 1 .576-2.976c.192-.864.288-1.632.768-2.4v-.288c.096-.192.096-.384.192-.576.768-1.824 1.824-3.648 2.88-5.472.192-.384.48-.768.768-1.056.384-.48.768-.768 1.248-.768 1.824-.288 3.264-1.248 4.8-2.208 1.536-1.056 2.88-2.4 4.128-3.744 1.632-1.728 1.536-2.88.192-4.224-.864-.864-1.824-.96-2.976-.576-.672.288-1.44.672-2.112 1.056-1.344 1.056-2.688 2.112-3.84 3.36a5.142 5.142 0 0 1-1.44 1.44c-.864.576-1.536 1.344-1.92 2.304-.096.384-.288.672-.48.96-1.344 1.92-2.592 3.84-3.552 5.856-1.152 2.4-2.112 4.8-2.496 7.392-.384 2.208.096 4.032 1.536 5.568 1.056 1.056 2.304 1.44 3.84 1.344 1.248-.096 2.4-.48 3.552-1.056 2.016-1.056 4.032-2.208 5.952-3.552 1.152-.768 2.304-1.536 3.456-2.4h.096c.768-.672 1.536-1.344 2.304-1.92 1.632-1.344 3.36-2.496 4.992-3.744 1.824-1.248 3.84-2.304 5.568-3.648.96-.576 2.016-1.152 2.976-1.824 2.112-1.44 4.32-2.784 6.72-3.648.096-.768-.48-1.152-.864-1.536Zm-26.784-3.36.288-.288c.48-.576 1.056-.864 1.728-1.152 0 0 0 .096.096.192-.096.096-.096.192-.096.288-.192.192-.48.288-.768.48a2.09 2.09 0 0 1-.768.48l-.288.192c-.096.096-.192.192-.192.288v-.288h-.288l.288-.192Zm3.264-.288c-1.248.864-2.304 1.728-3.552 2.592.864-1.248 2.304-2.304 3.552-2.592Zm-3.072.48c0-.096.096-.096.096-.192h.192l-.192-.288c0 .096 0 .192-.096.288h-.192v.192h.192Zm-.48.096v.192h-.288c.096-.096.192-.192.288-.192Zm.48 2.4v-.096a.206.206 0 0 0 .192-.192h.096c.576-.864 1.536-1.44 2.496-1.824.096-.096.192-.096.288 0a.292.292 0 0 1 0 .384c-.672.672-1.248 1.344-1.92 1.92-.384.384-.864.672-1.344 1.056-.48.48-1.056.768-1.728.864.48-.864 1.152-1.536 1.92-2.112Zm.096-.096h-.096s.096.096.192.096l-.096-.096Zm2.88 1.248c0-.096.096-.192.192-.192 0 .096-.096.096-.192.192Zm-2.4.672c-.288.288-.672.576-1.152.48.48-.48 1.056-.768 1.536-1.152 0 .288-.096.576-.384.672Zm1.824-.192c-.288.48-.768.864-1.344.96a.206.206 0 0 1-.192.192c.096 0 .096-.096.192-.192.384-.48.864-.768 1.344-1.056 0 0 .096-.096.192-.096 0 .096-.096.096-.192.192Zm21.504 0c.096 0 .192 0 .192.096l-.096.096h-.192s.096-.096.096-.192Zm-.192.288c-.096.096-.288.192-.384.192.096-.192.288-.192.384-.192Zm-.48.192c-.096.192-.288.192-.48.192l.48-.192Zm-21.696 14.112a4.262 4.262 0 0 1 1.056-.768c.288-.288.576-.48.96-.672.48-.384.864-.768 1.344-.96.672-.576 1.44-1.056 2.112-1.44.288-.384.672-.576 1.056-.768.288-.288.672-.576 1.056-.672.288-.288.672-.576 1.056-.672a5.628 5.628 0 0 1 1.824-1.248c.288-.288.672-.576 1.056-.672.288-.288.48-.48.768-.48a5.628 5.628 0 0 1 1.824-1.248c.288-.288.48-.384.864-.48.192-.288.48-.384.768-.48.672-.672 1.44-1.056 2.304-1.44.192-.288.48-.384.864-.48.096-.288.384-.384.672-.48.288-.288.48-.384.864-.48.192-.288.48-.384.672-.48 0 .096 0 .192.096.288-.192.192-.384.288-.576.48l-.192-.192c0 .096 0 .096-.096.192-.096.192-.288.288-.48.48-.288.192-.576.288-.768.48l-.864.48c-.192.192-.48.288-.768.48h.096c-.288.096-.576.288-.864.48h.096c-.288.096-.576.288-.864.48 0-.096-.096-.096-.192-.192v.192c-.192.192-.384.288-.576.48l-.192-.192c0 .096 0 .096-.096.192-.096.192-.288.288-.48.48l-.288.288c-.288.096-.48.288-.768.384h-.288a1.157 1.157 0 0 1-.48.48c-.096 0-.096-.096-.192-.192 0 .096 0 .192-.096.288h.288c-.096 0-.192.096-.288.192-.192.096-.288.192-.48.192-.096 0-.096-.096-.192-.096v.096s.096 0 .192.096c-.096 0-.192.096-.288.192a2.09 2.09 0 0 1-.768.48l-.288.288c-.288.096-.48.288-.768.384l-.288.288c-.192.096-.288.192-.48.192-.096 0-.096-.096-.192-.096v.096s.096 0 .192.096c-.096 0-.192.096-.288.192l-.288.288c-.192 0-.288.096-.48.192l-.288.288a2.09 2.09 0 0 1-.768.48c-.096 0-.192.096-.288.192-.192.288-.48.48-.768.48l-.288.288a.206.206 0 0 0-.192.192v-.096h-.096v.096c-.192.288-.48.384-.768.48h-.096v.096l-.096.096-.096-.096v.192a2.09 2.09 0 0 1-.768.48.206.206 0 0 0-.192.192v-.192l-.288.192h.192l-.288.288c-.096 0-.288.096-.48.192-.096.096-.096.192-.192.192v-.192c-.096.096-.192.192-.288.192v.096h.192l-.192.192v-.192c-.096.096-.192.096-.288.192l-.384.096c0 .096-.096.096-.096.192-.096 0-.192.096-.288.192h.288c-.096.096-.192.192-.288.192v-.192l-.288.288h-.384c-.096.192-.288.288-.384.48-.192 0-.48.096-.672.192.192-.384.576-.576.96-.768Zm23.616-13.632c.096-.192.288-.192.384-.192-.096 0-.288.096-.384.192Zm-.768.48-.576.288c-.096.192-.288.288-.576.48a140.084 140.084 0 0 1-4.992 3.072c-.192.192-.384.192-.576.288a5.628 5.628 0 0 1-1.824 1.248c-2.112 1.536-4.128 2.976-6.336 4.32-1.056.768-2.016 1.632-3.072 2.4-1.44.96-2.784 2.016-4.224 2.976-.48.288-.864.672-1.44.768-.192.288-.48.48-.768.48-.192.288-.48.384-.768.48a2.09 2.09 0 0 1 .768-.48c.192-.288.384-.48.768-.48.192-.384.672-.672 1.056-.96 2.208-1.536 4.416-3.168 6.624-4.8l.96-.576c1.536-1.248 3.264-2.4 4.992-3.552.384-.288.864-.48 1.248-.768a7.848 7.848 0 0 1 1.92-1.152c1.728-1.344 3.648-2.4 5.568-3.552.192-.192.48-.192.672-.288.192-.192.384-.192.576-.192.192-.288.384-.48.672-.48-.096.288-.384.384-.672.48Zm-24.288.192c.192-.192.384-.384.672-.384-.096.288-.384.384-.672.384Zm15.552 3.648h.288l-.192-.192c0 .096 0 .096-.096.192Zm-3.648 2.4h.288l-.192-.192c0 .096 0 .096-.096.192Zm-2.112 1.44h.288v-.192l-.288.192Zm-.768.48h.288l-.192-.192c0 .096 0 .192-.096.192Zm-.96.576v.096s.096 0 .192.096c-.096-.096-.096-.192-.192-.192Zm-.096.192v.192c.096-.096.096-.096 0-.192Zm-.768.672c-.096 0-.096-.096-.192-.096.096.096.096.096.192.096Zm-.48.192c.096 0 .096 0 .192.096v-.192c-.096 0-.096.096-.192.096Zm-2.112 1.536h.192v-.288c0 .096-.096.192-.192.288Zm-1.056.672h.192s-.096-.096-.096-.192c0 .096-.096.192-.096.192Zm-3.168 1.92a.722.722 0 0 1-.672.48c.192-.288.384-.384.672-.48Zm-1.056.768c-.192.288-.384.384-.672.384.192-.192.384-.384.672-.384Zm-.96.672c0-.096.096-.192.192-.192-.096.096-.192.096-.192.192Z" fill="#000"/><path d="M150.428 75.232c-.384-.672-.96-1.248-1.536-1.824-1.056-1.056-2.208-1.44-3.552-1.248-1.44.192-2.88.672-4.128 1.248-2.016.96-3.936 1.92-5.76 2.976-1.44.864-2.784 1.536-4.128 2.496-1.728 1.248-3.456 2.304-4.992 3.84l-.96.864c-.096.096-.288.288-.48.096-.192-.192-.192-.288-.192-.48s.192-.384.192-.672c0-1.92.864-3.744 1.152-5.76.096-.768.192-1.536-.096-2.304-.192-.576-.576-.96-1.056-1.248-.192-.096-.384-.096-.48.096l-.288.576c-.48.96-.768 2.016-1.056 3.072-.672 2.304-1.536 4.512-2.304 6.816-.864 2.688-1.536 5.28-2.4 7.872-.192.576-.096 1.056.384 1.536.192.192.48.384.576.672.288.768.864.96 1.536 1.248.48.192.864.096 1.248 0s.288-.48.384-.672c0 0 .096 0 .192-.096 0-.096.096-.192.192-.288l.192-.192c.48-1.152 1.248-2.016 2.112-2.88.192-.384.48-.768.768-.96.096.096.096.288.096.48.288-.384.576-.672.768-.96h-.48c.48-.672.96-1.344 1.728-1.728 0-.096.096-.096.096-.192.096-.096.192-.192.192-.288.096 0 .192-.096.288-.192.096-.288.288-.384.576-.48.096-.096.192-.192.192-.288l.192-.192c0 .096 0 .096.096.192 0-.096 0-.096-.096-.192h.096c.096-.48.48-.768.96-.96l.192-.288c.192-.288.48-.576.864-.672l.192-.288c.192-.096.288-.192.48-.192 0-.096.096-.192.192-.288h-.096c.192-.192.384-.384.672-.48l.192-.192c.192-.288.48-.384.672-.576.192-.192.48-.288.672-.48.096-.288.384-.384.576-.48v.096c0 .096.096.096.096.192 0-.096.096-.096.192-.192v-.096c.288-.096.576-.288.864-.384V80.8l.192-.192c.384-.288.96-.48 1.056-.864.096-.288.384-.288.576-.384.384-.192.768-.384 1.056-.576.672-.48 1.344-.96 2.112-1.344 1.44-.672 2.88-1.44 4.416-2.016.48-.192.96-.288 1.536-.48.768-.288 1.344-.096 2.112.672.096.096.096.096.192.096.288 0 .384.288.576.096.192-.192.288-.384.192-.576Zm-7.392-1.344c.096 0-.192.192-.576.192.096-.096.288-.192.576-.192Zm-14.304 8.64c.192-.384.48-.576.864-.672.096-.288.288-.48.576-.48.096-.384.384-.48.576-.576.192-.192.48-.384.672-.48a4.262 4.262 0 0 1 1.056-.768c.288-.288.672-.576 1.152-.672.48-.48 1.152-.96 1.92-1.248 1.536-.96 3.072-1.92 4.8-2.592.096-.192.288-.192.48-.192.288-.384.672-.48 1.152-.48.096-.192.288-.192.384-.192.096 0 .096.096.096.192h-.48v.192c-.288.192-.576.48-1.056.288v.192c-.192.096-.288.096-.48.096v.192l-.384.288v-.096c-.288.192-.384.48-.672.576a.733.733 0 0 1-.48.192c-.096.192-.192.192-.384.288l-.48.192c-.192.384-.576.576-1.056.672v-.192c-.192.096-.288.192-.384.192l.384.096c-.096.096-.288.192-.384.192-.096-.096-.096-.096-.096-.192-.096.096-.288.096-.384.192h.384c0 .192-.192.192-.384.288-.096.096-.288.192-.384.192-.096-.096-.096-.096-.096-.192v.192c-.192.384-.576.576-1.056.768-.096.096-.192.192-.384.192-.192.288-.384.384-.672.48-.096.192-.288.192-.384.288-.096-.096-.096-.192-.096-.288l-.384.096c0 .096 0 .096-.096.192h.48a.983.983 0 0 1-.576.48.733.733 0 0 1-.48.192v-.192h-.384c-.096.192-.192.288-.288.48h.48c-.096.096-.192.192-.384.192 0-.096-.096-.192-.096-.192-.096 0-.288 0-.384.096-.096.096-.192.192-.192.384h.384c-.096 0-.288.096-.384.192v-.192h-.48a.733.733 0 0 0-.192.48h.48l-.48.192v-.192h-.48c-.096.096-.096.288-.192.48h.48c-.096.192-.288.384-.576.384 0 0-.096-.096-.096-.192-.096 0-.288 0-.384.096-.096 0-.192.096-.192.096 0-.096.096-.096.096-.192Zm15.552-7.104c-4.32 1.44-7.968 4.32-11.424 7.008-3.36 2.592-6.144 5.664-8.736 8.832-.384.48-.672 1.056-1.248 1.44h-.096v-.096c0-.384.288-.672.48-.864 2.976-2.976 5.28-6.336 8.544-9.024 3.072-2.592 6.528-4.608 10.176-6.624a12.805 12.805 0 0 1 3.168-1.248c-.192.288-.576.48-.864.576Zm-8.544 2.4v.096c.096 0 .288 0 .384.096 0-.096 0-.192-.096-.288-.096.096-.192.096-.288.096Zm-1.632 1.152h.48v-.288l-.48.288Zm-.384 0v.192h.48c0-.096-.096-.192-.096-.192h-.384Zm-.672.672h.48v-.288l-.48.288Zm-1.056.768h.48v-.288c-.192.096-.384.192-.48.288Zm2.688 1.632v-.288c-.096.096 0 .096 0 .288Zm0 0 .096.096c0-.096-.096-.096-.096-.096Zm-6.144.768c0 .096-.096.288-.096.384h-.48c.096-.192.288-.384.576-.384Zm4.896.192h-.288c0 .096.096.192.096.192l.192-.192Zm-.384.48c0-.096.096-.096.192-.192V83.2l-.288.288h.096Zm-5.376 0c-.096.288-.288.384-.576.48.192-.192.384-.384.576-.48Zm4.896.288.384-.288h-.384v.288Zm-.192.192c.096-.096.096-.192.192-.192h-.192v.192Zm-.48.192v.096l.48-.288h-.48v.192Zm-.192.288.192-.192h-.192v.192Zm0 0-.192.288c.096-.096.192-.192.192-.288Zm-.384.48c.096-.096.192-.096.192-.192-.096 0-.096.096-.192.192Zm-.384.288c.096-.096.192-.192.384-.288h-.48c0 .096.096.192.096.288Zm-4.704-.192c-.096.192-.288.288-.576.384.192-.192.384-.384.576-.384Zm4.608.192h-.192c0 .096.096.096.096.192 0-.096.096-.096.096-.192Zm-.48.768c0-.096.096-.192.096-.288l-.192.288h.096Zm-.864.672c.096-.096.096-.192.192-.288h-.288c.096.096.096.192.096.288Zm-.192.192c0-.096.096-.096.192-.192h-.288c0 .096.096.096.096.192Zm-.192.288c0-.096.096-.192.192-.288l-.288.288h.096Zm-.48.192c.192-.096.288-.096.384-.192h-.384v.192Zm-.192.288.192-.288h-.192v.288Zm-.192.192.192-.192h-.192v.192Zm-.192.192c.096 0 .096-.096.192-.192h-.192V88Zm0 .096a.206.206 0 0 0-.192.192c0-.096.096-.096.192-.192Zm-.576.672c0-.096.096-.096.192-.192 0-.096.096-.192.192-.288l-.288.288-.192.192-.192.288-.192.192.288-.192c0-.096.096-.192.192-.288Zm-.48.48c0 .096-.096.192-.192.288h.096c0-.096.096-.192.096-.288Zm-.96 1.248-.192.192c.096-.096.192-.096.192-.192Zm-1.152 1.44.096-.096h-.096l-.192.288c.096-.096.096-.192.192-.192Zm-.384.48c0-.096.096-.192.192-.288l-.288.288c0 .096-.096.096-.096.192.096 0 .096-.096.192-.192Zm-.192.192-.096.096c.096 0 .096-.096.096-.096Zm-.096.096-.192.192c0 .096-.096.096-.096.192l.192-.192c.096-.096.096-.096.096-.192Zm-.288.384-.192.192c-.096.096-.096.192-.192.192.096 0 .192-.096.192-.096l.192-.288Zm-.48.576s.096-.096.096-.192c0 .096-.096.096-.096.192Zm0 0c-.096 0-.096.096-.192.192.096-.096.192-.096.192-.192Zm-.192.192h-.192v.192l.192-.192Zm-.384.48c.096-.096.192-.192.192-.288h-.192v.288Zm-.192 0h.192c-.096-.096-.192-.096-.192 0Z" fill="#000"/><path d="M194.911 77.152a.75.75 0 0 0-.384-.384c-1.248-1.152-2.592-1.44-4.032-1.056-.768.192-1.536.48-2.304.768-2.688 1.152-5.28 2.496-7.776 3.936l-1.344.768c-.096 0-.384 0-.384-.096-.096-.096-.288-.384-.192-.48.384-.768.384-1.632.576-2.4.192-1.056 0-2.016-.288-3.072-.096-.672-.48-1.344-.96-1.824-.672-.768-1.44-1.344-2.208-1.824-1.44-1.056-2.88-1.248-4.32-.864a6.666 6.666 0 0 0-1.248.48c-1.44.672-2.688 1.728-3.936 2.592-1.728 1.344-3.264 2.976-4.992 4.32-.96.768-1.728 1.536-2.592 2.304-1.536 1.344-3.36 2.4-5.28 3.264-.384.096-.768.384-1.152 0-.384-.288-.288-.672-.288-1.056-.096-1.44.384-2.688.384-4.032 0-.096.192-.288.192-.384.096-.192.192-.384.192-.576l.48-1.344c.192-.576.48-1.056.768-1.632l.864-1.92c.096-.384.096-.768-.096-1.152-.096-.384-.384-.48-.672-.672l-.48-.288c-.48.192-.768.48-1.056.864-.864.96-1.632 2.112-2.304 3.264a13.989 13.989 0 0 0-1.728 5.568c-.288 1.92.384 3.552 2.112 5.088 1.152.96 2.304 1.44 3.648 1.344.768 0 1.632-.192 2.4-.384 1.248-.48 2.4-1.056 3.552-1.824l2.304-1.728c1.248-.864 2.304-1.824 3.36-2.88.384-.384.768-.672 1.248-1.056l3.744-2.976c.864-.864 1.92-1.344 3.072-1.92l.768-.288c.384 0 .576.192.672.48v.768c-.096.768-.096 1.44-.192 2.208-.384 2.4-1.152 4.704-2.016 6.912l-.192.48c-.288.288-.48.576-.768.768l-2.112 1.44c-2.4 1.44-4.608 3.072-6.816 4.704-2.016 1.536-4.032 3.168-6.048 4.8-1.344 1.056-2.592 2.208-3.936 3.36-2.4 2.016-4.704 4.032-6.816 6.24-1.92 2.016-3.936 3.936-5.76 5.952-1.536 1.728-3.072 3.456-4.512 5.28-1.824 2.304-3.648 4.512-5.28 6.912-.96 1.536-2.016 3.072-2.88 4.608a50.673 50.673 0 0 0-2.592 5.088c-.96 2.112-1.728 4.224-2.112 6.528-.096.96-.288 2.016-.192 2.976 0 2.016.96 3.744 2.976 4.896l.576.288c1.248.768 2.496.96 3.744.768 1.824-.096 3.36-.864 4.8-1.728 1.632-1.056 3.168-2.112 4.512-3.36 1.056-.96 2.016-1.824 2.976-2.784 1.152-1.056 2.304-2.112 3.264-3.36 2.112-2.4 4.32-4.704 6.048-7.488.096-.192.288-.288.384-.48.384-.48.672-.864 1.056-1.344l2.688-3.84c.864-1.248 1.632-2.592 2.496-3.84.48-.672.864-1.44 1.344-2.112.288-.48.48-1.056.672-1.632.192-.288.288-.576.576-.768 0-.096 0-.288.096-.384 0 .096 0 .288.096.384v-.384c.096-.192.288-.384.384-.672l.192-.288c0 .096.096.192.096.288v-.384h-.096l.768-.864c-.192-.48 0-.768.288-.96 0 .096.096.192.096.384.096-.192.096-.288.192-.48h-.288c.096-.288.192-.48.288-.672l.672-.96c.096-.384.192-.672.48-.864.096-.288.192-.672.48-.864.096-.288.192-.576.48-.768.192-.288.288-.576.384-.864l.576-.864a7.373 7.373 0 0 1 1.344-2.4c.288-.576.672-1.248 1.056-1.824l.288-.576c0-.288.096-.48.288-.672.192-.192.288-.48.384-.672l.576-.864h-.096c.192-.192.288-.48.48-.672 0 .096 0 .192.096.384.096-.192.192-.288-.096-.48.096-.48.288-.96.576-1.248h.096c0-.576.288-1.056.768-1.44.096-.864.48-1.536 1.056-2.112 0-.192.096-.48.288-.576.096-.672.288-1.248.768-1.728.096-.192.096-.48.192-.672.192-.48.48-.96.672-1.44.192-.288.384-.48.48-.768l.192-.48c0 .192 0 .288.096.384 0-.096 0-.192.096-.288-.096 0-.192 0-.192-.096 0-.288 0-.48.288-.576 0-.096.096-.288.096-.48v.096l.192-.48c.384-.672.864-1.248 1.536-1.632.384-.288.768-.48 1.248-.768 3.36-2.208 6.816-4.32 10.464-6.144.768-.384 1.536-.768 2.4-1.056.768-.288 1.632-.576 2.592-.288h.192c.192 0 .288-.288.192-.384Zm-25.728-4.128c0 .192-.192.288-.288.288l.288-.288Zm-8.064 6.912s0 .096-.096.096c0 .096-.096.096-.096.096v-.192h.192c.096-.384.384-.576.672-.672.192-.288.384-.576.768-.672.192-.192.48-.384.672-.672.96-.96 1.92-1.92 3.072-2.688l.768-.576c.192-.192.384-.288.48-.48l.672-.384c.096-.192.288-.384.48-.384 0 .288-.192.384-.48.48-.192.096-.288.288-.48.384-.192.192-.384.288-.576.48l-.672.576c-.192.192-.288.384-.384.576l-.576.48h.384l-.384.096c-.48.384-.96.768-1.536 1.152-.192.096-.384.288-.672.48-.192.192-.48.384-.768.576-.096.288-.384.48-.672.672-.192.288-.384.48-.768.576Zm8.736-4.512c-2.304 1.92-4.608 3.84-6.912 5.856-.192.192-.48.48-.864.48 0 .096 0 .192-.096.192h-.096v-.096c.096-.096.096 0 .192-.096.192-.192.48-.48.672-.768a247.753 247.753 0 0 0 5.568-4.8l1.152-.96c.288-.096.576-.192.768-.384-.096.192-.192.384-.384.576Zm6.528 12.48c-.096-.192-.096-.288-.096-.48v.384l.096.096Zm-.192.384c.096-.192.096-.288.192-.384h-.288a.726.726 0 0 1 .096.384Zm-.096.384c.096-.192.096-.288.096-.384h-.192c0 .096.096.192.096.384Zm-.288.672v-.096c-.096 0-.096.096-.096.096h.096Zm-6.528 1.632-1.152.768c.192-.48.672-.672 1.248-1.056 0 .192 0 .288-.096.288Zm-1.632 1.056c-.096.288-.192.384-.48.384.192-.096.288-.192.48-.384Zm1.44.768c-.576 1.152-1.152 2.4-1.728 3.456l-5.472 9.984c-.96 1.632-2.016 3.36-2.976 4.992l-.288.48c-1.632 3.072-3.552 6.048-5.472 9.024-.96 1.632-2.112 3.168-3.168 4.704-1.248 1.728-2.496 3.552-3.744 5.184-2.304 2.976-4.704 5.664-7.2 8.352-1.824 1.824-3.744 3.456-5.664 4.992-1.248.96-2.496 1.728-3.936 2.304-.384.192-.768.288-1.152.384-.384.192-.576 0-.768-.384-.192-.192-.288-.48-.384-.768l-.192-1.92v.096c-.192-.288-.384-.576-.288-.864 0-.48 0-.96.288-1.344.096-.192.096-.48.096-.672 0-.576.192-.96.384-1.44 0-.48.192-.864.576-1.152v-.48c0-.192.096-.288.192-.48.384-.384.576-.96.768-1.536.672-1.632 1.536-3.072 2.208-4.608.864-1.056 1.44-2.304 2.112-3.456l2.112-2.88.864-1.152.864-1.248c.672-.864 1.344-1.728 2.016-2.496l3.84-4.416c.288-.288.48-.576.768-.768 2.016-2.208 4.032-4.224 6.144-6.336 1.056-.96 2.016-1.92 2.976-2.88.48-.48 1.056-.96 1.632-1.44 1.152-.96 2.208-1.92 3.36-2.88l5.568-4.704c1.248-.96 2.592-2.016 3.936-2.976l1.152-.96c.096-.096.096-.096.576-.096v.384Zm-6.048 2.784.576-.384c.096-.288.288-.384.576-.384.192-.576.672-.864 1.152-1.152.288-.096.48-.192.672-.384.096-.192.288-.384.576-.384.096-.288.288-.384.48-.384-.096.192-.288.288-.48.384-.096.192-.288.384-.576.384l-.48.48c-.384.48-.768.864-1.344 1.056-.192.192-.288.384-.576.384-.192.192-.288.384-.576.384-.288.576-.672.864-1.248 1.056-.288.576-.672.864-1.248 1.056.192-.48.672-.864 1.248-1.056.288-.48.672-.864 1.248-1.056Zm-.864-1.728h-.096l-.096.096v-.192c.096 0 .096 0 .192.096Zm-2.112 1.536c.192-.288.384-.48.768-.576-.096.384-.384.48-.768.576-.096.288-.288.384-.576.384.096-.192.288-.288.576-.384Zm-.576.48c-.192.288-.384.48-.672.576.096-.288.288-.576.672-.576Zm-1.536 1.152.096.096h-.096v-.096Zm12.768.384h-.096l.096-.096v.096Zm-10.272.288c-.096.48-.48.672-.96.768.288-.288.576-.576.96-.768Zm-3.936.576v.096s-.096-.096 0-.096Zm-.768.672h.096v.096h-.096v-.096Zm2.688.48c.096-.096.096-.192.096-.192h.096v.096s-.096 0-.192.096l-.192.192s0-.096-.096-.096c.096 0 .192-.096.288-.096Zm11.136.096v-.096c.096 0 .096.096.096.096h-.096Zm-15.168.576v.096h-.096c0-.096.096-.096.096-.096Zm16.032.096c-.096 0-.096 0-.192-.096v.576l.192-.48Zm-14.688 1.536c.192-.288.384-.576.768-.672.192-.288.48-.672.864-.864-.192.48-.192.48-.864.864-.192.384-.384.576-.768.672-.096.288-.288.48-.768.672.192-.48.48-.576.768-.672Zm14.208-.672c-.096 0-.192-.096-.288-.096.096.096.096.288.096.48 0-.096.096-.288.192-.384Zm-.48.96c0-.096.096-.192.096-.288h-.192c.096.096.096.192.096.288Zm-17.472.288c-.096.288-.288.384-.48.384l.192-.288s.096 0 .288-.096Zm17.184.384c0-.096 0-.192.096-.384h-.192c0 .192 0 .288.096.384Zm-18.336 3.264 3.072-2.784c.096-.096.192-.192.48-.384-.096.288 0 .384-.096.384l-3.456 3.168-.288.192c-.576.768-1.152 1.344-1.92 1.728.576-.768 1.056-1.44 1.92-1.728l.288-.576Zm.672-3.168c-.096.192-.096.384-.48.384.096-.288.288-.384.48-.384Zm15.84.768c.096-.096.096-.192.096-.288 0 .096.096.096.096.096-.096.096-.096.192-.192.192Zm-.96 1.728c0 .288-.096.48-.288.576-.192.768-.48 1.44-1.152 1.92 0 .192-.096.48-.288.576.096-.288.192-.384.288-.576.192-.768.576-1.44 1.152-1.92 0-.288.096-.48.288-.576.096-.768.576-1.248.96-1.632-.192.672-.384 1.248-.96 1.632Zm-17.376-.288c.192-.384.48-.672.864-.768.096-.096.096-.288.192-.288 0-.096.192-.096.192-.192 0 .288 0 .288-.384.48-.096.384-.48.672-.864.864-.096.384-.48.672-.864.864.096-.48.096-.48.864-.96Zm18.72-.192-.096-.096v.096h.096Zm-20.928 2.304a.865.865 0 0 1 .576-.576c-.096.384-.096.384-.48.672-.192.288-.48.576-1.056.864.288-.576.576-.768.96-.96Zm17.376 2.112c0 .384-.192.672-.48.864-.096.288-.192.672-.384.96-1.44 2.592-2.976 5.184-4.512 7.776-1.632 2.592-3.36 5.184-5.088 7.776-.288.48-.768.864-1.152 1.248 0 .576-.384.96-.768 1.248.096-.672.096-.672.768-1.248.192-.288.288-.672.48-.96 3.072-4.416 5.856-9.12 8.64-13.824.384-.576.672-1.152 1.056-1.824.288-.384.48-.864.96-1.152 0-.384.192-.672.48-.864.096-.288.192-.672.48-.768 0 .384-.192.576-.48.768Zm-18.912-.672a.297.297 0 0 1 .096.192c-.192.192-.384.384-.48.576-.096-.096-.096-.192-.192-.192l.576-.576Zm.864 2.112c.384-.48.768-.96 1.344-1.248.096-.288.288-.48.768-.672-.192.384-.384.672-.768.672-.288.576-.672 1.056-1.248 1.344-.576.672-1.248 1.44-1.92 2.112-.288.288-.576.576-.864.768-.48.576-.864 1.056-1.344 1.536a.983.983 0 0 1-.576.48c.48-.768 1.056-1.536 1.824-2.016.288-.384.48-.768.864-1.056.576-.672 1.248-1.248 1.92-1.92Zm19.2-1.824c.096.096.096.288.096.384.096-.096.192-.288-.096-.384Zm-.384 1.248.192-.48c-.096.096-.192.096-.192.096v.384Zm-20.832-.192c-.192.384-.384.672-.864.864.192-.48.48-.672.864-.864Zm20.64.384c-.096.096-.192.096-.384.192 0 .192.096.288.096.384l.288-.576Zm-3.936 1.44c0 .48-.288.864-.576 1.152-.192.288-.288.576-.48.864l-.48.768c-.096.384-.288.768-.672.864 0 0 0 .096-.096.192.096.384-.096.576-.384.864-.096.384-.288.672-.672.864v.096c0 .384-.192.672-.48.864-.096.48-.288.864-.672 1.056-.096.48-.288.864-.768 1.056h-.192c.288.48-.096.768-.384 1.056l-.096-.384c-.096.192-.288.384-.096.768l-.288.192c-.096.192-.096.288-.096.48-.096-.192-.096-.288-.096-.48-.096.192-.192.48-.192.672l-.288.384c0 .288-.096.384-.384.192-.48.672-.96 1.344-1.44 1.92-.288.576-.576 1.056-1.056 1.536.096-.672.096-.672.864-1.632l1.536-2.304c2.112-3.552 4.32-7.104 6.432-10.56.384-.576.768-1.056 1.056-1.536 0-.096 0-.096.096-.192h.096v.096c0 .096-.096.096-.096.192s-.096.288-.096.48c.288.192.288.288 0 .48Zm3.456-.576c-.096 0-.192.096-.384.192 0 .096.096.288.096.384l.288-.576Zm-21.6.192c-.288.672-.576 1.056-1.248 1.44.192-.576.672-1.056 1.248-1.44Zm17.856.576c.096 0 .192-.096.288-.192v-.384l-.288.576Zm3.168.192-.48.192c.096.192.096.288.096.48l.384-.672Zm-3.744.672h.192c0-.096 0-.192-.096-.384 0 .192 0 .288-.096.384Zm-.384.864h.096c0-.192 0-.288-.096-.384v.384Zm-19.008 0 .096.096-.096.096c-.096 0-.096-.096-.096-.096 0-.096.096-.096.096-.096Zm18.528.768h.096c0-.096-.096-.192-.096-.288v.288Zm-19.872.576c.096.384-.096.576-.48.576.192-.192.384-.384.48-.576Zm18.72 1.344h.096c0-.096 0-.192-.096-.384v.384Zm-18.336 1.44c-.384.768-.384.768-.96 1.248.192-.576.576-.864.96-1.248Zm17.28.384v-.288c-.096.096-.096.192-.096.384l.096-.096Zm-.768 1.152h.192c0-.096-.096-.288-.096-.384l-.096.384Zm-21.696 1.824c-.096.192-.096.288-.288.48-.096-.288.096-.384.288-.48Zm.96 1.824c.096 0 .192.096.192.096-.096.288-.288.576-.48.864-.192-.576.192-.672.288-.96Zm-2.592.096c.288.384-.096.384 0 .768-.288-.48 0-.48 0-.768Zm-7.104 14.016c0 .192-.096.288-.096.48l-.096.384c-.096.096-.192.096-.288 0a2.09 2.09 0 0 1-.48.768l.192-1.056c.768-2.304 1.728-4.512 2.88-6.72.576-1.056 1.248-2.112 1.824-3.264.192-.288.48-.576.672-.864l1.344-2.016c0-.096.096-.096.384-.288-.48.96-.96 1.728-1.536 2.4-.096.288-.096.48-.096.768-.096.192-.096.288-.192.384-.096.192-.192.288-.288.48h-.096a5.507 5.507 0 0 1-.384.672h-.096c.096.384-.096.576-.384.864l.096-.096c-.096.096-.096.192-.096.192-.096.192-.192.288-.192.48-.096 0-.096.096-.096.096-.096.384-.192.576-.48.768-.096.768-.48 1.44-.96 2.112 0 .096-.096.192-.192.384 0 .192 0 .48-.288.576 0 .48-.096.768-.384 1.056-.096.096-.096.288-.192.384 0 .48-.096.864-.48 1.056Zm.48 4.896v.288s-.096 0-.192.096c0-1.248.288-2.304.576-3.36a36.569 36.569 0 0 1 2.592-6.336c1.248-2.496 2.784-4.896 4.416-7.2.096-.096.192-.192.384-.096-.096.192-.192.384-.288.48-1.536 2.4-2.976 4.8-4.32 7.392-1.344 2.688-2.496 5.568-3.168 8.736Zm24.096-14.304c-.096.096-.192.192-.288.384-.192-.288 0-.384.288-.384Zm-2.496 3.36c.288-.672.288-.672.864-1.152-.192.48-.576.672-.864 1.152Zm2.592 0s-.096 0-.096-.096h.192l-.096.096Zm-25.728 8.736h-.192c.096-.192.192-.384.192-.48v.48Zm-29.91-72.095c0-.096.096-.192.096-.192v-.384l-.384-.288c-.96-.576-1.92-.48-2.976.192-.384.192-.768.48-1.152.864-1.344 1.248-2.688 2.496-3.936 3.84-1.344 1.536-2.88 3.168-4.224 4.704l-3.456 4.032c-.864.96-1.632 2.016-2.496 2.976a155.876 155.876 0 0 0-3.648 4.704c-.672.672-1.248 1.44-1.824 2.112-.096.192-.192.192-.288.288-.384-.192-.288-.48-.288-.768.192-2.016.288-3.936.576-5.856.384-2.016.672-4.032.96-6.144.192-1.056.384-2.208.48-3.264.096-.96-.192-1.728-1.056-2.208-.96-.48-1.248-.384-1.536.864-.48 1.632-.864 3.36-1.248 5.088-.672 2.496-1.056 4.992-1.248 7.488-.192 2.112-.288 4.128-.384 6.144-.096 1.44.288 2.592 1.248 3.552.864.864 2.496.96 3.552-.192.768-.672 1.44-1.536 2.208-2.4.096-.192.288-.384.384-.672.384-.576.864-.96 1.344-1.44l2.88-3.744c.288-.288.48-.672.672-.96.096-.288.288-.576.576-.672.096-.192.192-.384.288-.48l.192-.192.288-.48c0 .192-.096.288-.192.48a4.17 4.17 0 0 0 .576-.672c-.096.096-.192.096-.288.192l.288-.576c.48-.48.864-.96 1.248-1.44.096-.192.192-.288.288-.48v.48c0-.192.096-.288.096-.48.096 0 .192-.096.288-.192 0-.288.096-.48.384-.576.096-.288.288-.48.576-.672.096-.192.288-.384.48-.672.576-.864 1.344-1.728 2.112-2.592.192-.192.384-.288.672-.48 0-.192.096-.288.192-.48 0 .192.096.288.096.384v-.384c.288-.192.576-.48.864-.864a9.687 9.687 0 0 1 1.248-1.536c.768-.96 1.92-1.632 2.592-2.784v-.096c.864-.672 1.728-1.344 2.496-2.016l.768-.768v-.192c-.192 0-.288-.096-.384-.096Zm-15.072 13.44c0-.288.192-.48.48-.672.48-.864 1.248-1.536 1.92-2.304.192-.384.48-.672.864-.768 0-.288.192-.576.48-.672.096-.384.384-.672.768-.864.096-.384.288-.672.672-.864l.768-.864c.192-.288.48-.48.768-.768.384-.768 1.056-1.344 1.632-1.92 1.248-1.44 2.4-2.592 3.264-3.072-.096.48-.096.48-.768 1.248-.288.48-.672.864-1.152 1.056-.096.096-.192.096-.192.192-.192.48-.48.768-.96 1.056v-.096l-.096.096h-.096c0 .384-.288.672-.576.864h-.192c0 .384-.288.576-.576.864.096-.192.096-.384.192-.48-.192.096-.288.192-.48.192 0 .192 0 .288-.096.48.096-.096.192-.096.288-.096-.192.384-.48.672-.864.96 0-.192.096-.288.096-.48h-.096l-.288.48c.096 0 .192.096.192.096-.096.192-.192.288-.384.48.096-.192.096-.288.096-.48l-.384.288c-.096.096-.192.288-.288.48.096 0 .192.096.288.096l-.48.48c.096-.192.096-.384.192-.576-.192.096-.384.192-.48.288l-.288.576c.096 0 .192 0 .288.096-.192.096-.288.288-.384.384 0-.192.096-.288.096-.48-.096.096-.288.192-.48.288 0 .192-.096.288-.096.48.096 0 .192-.096.288-.096a4.18 4.18 0 0 1-.576.672c0-.096.096-.288.192-.48-.096 0-.192.096-.288.096a.733.733 0 0 0-.192.48s.096.096.192.096c-.192.192-.384.288-.48.48 0-.192.096-.384.192-.576-.192.192-.288.288-.48.384 0 .096 0 .192-.096.384.096-.096.192-.096.288-.096-.192.192-.384.48-.576.768 0-.192.096-.288.096-.48-.096.096-.288.288-.384.48 0 0 .096.096.192.096-.192.192-.384.288-.48.48 0-.192.096-.288.192-.48l-.576.672c.096 0 .192-.096.288-.096-.192.192-.288.384-.384.576 0-.192.096-.384.096-.48l-.672.384c0 .192 0 .288-.096.48.096 0 .192 0 .288-.096-.096.192-.192.384-.288.48v-.384c-.096 0-.288.096-.384.192 0 .096-.096.288-.096.384h.288c-.096.192-.192.288-.384.48.096-.192.096-.288.096-.48a.733.733 0 0 1-.48.192l.576-.576Zm13.056-11.712c-3.744 3.552-7.104 7.584-10.368 11.52a245.376 245.376 0 0 0-9.024 11.328c-.384.576-.864 1.056-1.248 1.536l-.48.48c-.096-.096-.096-.096-.096-.192.096-.096.192-.288.288-.48 5.088-6.624 10.368-13.152 15.84-19.488 1.44-1.536 2.784-3.072 4.32-4.416.288-.288.576-.672 1.056-.768 0 .288-.192.384-.288.48ZM88.2 71.489v.288c.096-.096.096-.288.096-.384 0 .096-.096.096-.096.096Zm-16.896 20.64v.096h-.287c-.096.096-.096.192-.096.288v-.192l-.288.48c-.096 0-.192 0-.288-.096 0-.096 0-.192.096-.288 2.016-2.592 4.032-5.184 6.144-7.872l.192-.192c.192-.192.384-.384.48-.576.192-.288.384-.48.576-.672.288-.576.672-1.056 1.344-1.44-.096.192-.096.288-.096.48h.288c-.192.192-.288.48-.576.576a.983.983 0 0 1-.48.576v.096s-.096 0-.096.096l-.48.48c-.096.288-.192.48-.48.672-.192.192-.288.384-.48.672-.192.192-.384.384-.48.576-.192.288-.288.48-.576.672-.096.192-.192.48-.48.576-.192.192-.288.288-.384.48h-.288c.096.192 0 .384-.096.576l-.48.48c0 .096-.096.096-.096.192H73.8c0 .192-.096.288-.288.384a.733.733 0 0 0 .192-.48c-.192.288-.288.48-.48.672h.192c-.096.096-.192.192-.192.288 0 .096-.096.096-.096.192h-.096c-.096.192-.192.384-.384.576a.984.984 0 0 1-.48.576v.096h-.096c-.096.192-.192.288-.288.384h-.192c0 .288-.096.384-.288.576Zm7.2-9.408h.288v-.384l-.288.384Zm-.576.48c-.096.096-.096.288-.096.384.096-.096.192-.096.384-.096v-.096s.096 0 .096-.096v-.384l-.384.288Zm-.48.672c-.096.096-.096.192-.192.288l-.288.288c-.096.192-.096.288-.192.384l.48-.192c0-.192 0-.288.096-.384l.384-.288c0-.096.096-.288.096-.384l-.384.288Zm-.768 1.344c.096-.096.096-.288.096-.384 0 .096-.096.288-.192.384h.096Zm3.168-.384c-.096.096-.096.288-.096.384.096-.096.096-.288.096-.384Zm-3.552.672c-.096.096-.096.192-.192.384l.096-.096c0-.096 0-.192.096-.288Zm-.768 1.056h.192v-.384c-.096.096-.096.192-.192.384Zm-.576.576h.288v-.384l-.288.384Zm-.864 1.056h.384v-.48c-.096.192-.192.288-.384.48Zm-.384.672h.096c.096 0 .096-.096.096-.096l.096-.096v-.288l-.288.48Zm-.672 1.056c.096 0 .096-.096.096-.096l.096-.096v-.288c-.096.192-.192.288-.384.48h.192Zm-.576.576h.192c0-.096 0-.288.096-.384l-.288.384Zm-.576.672h.192l.096-.096v-.384l-.288.48Zm-.672 1.056.096-.096c0-.096.096-.192.096-.384 0 .192-.096.288-.192.48Z" fill="#000"/><path fill-rule="evenodd" clip-rule="evenodd" d="m51.168 103.649.576-3.072.576-2.592 2.304-10.848c.192-.864.48-1.824.768-2.784.262-1.102.496-2.233.733-3.378.196-.948.394-1.905.611-2.862.068-.27.123-.554.18-.84.104-.525.21-1.063.396-1.56.32-.896.555-1.792.79-2.688.117-.448.234-.896.362-1.344.067-.537.228-1.028.385-1.504.067-.204.133-.406.191-.608.384-1.632.768-3.264 1.248-4.896l.099-.352.1-.357c.604-2.148 1.192-4.242 1.625-6.491 0-.14.051-.23.117-.343a2.53 2.53 0 0 0 .075-.137c.057-.229.148-.423.233-.604.057-.123.112-.24.151-.356.062-.31.154-.62.247-.933.195-.657.394-1.328.329-2.043a.71.71 0 0 1 .048-.24c.024-.072.048-.144.048-.24.096-.288.168-.576.24-.864.072-.288.144-.576.24-.864 0-.288.096-.576.192-.864.192-.768.384-1.536.768-2.208.192-.256.299-.597.405-.939.054-.17.107-.341.171-.501.094-.44.158-.882.221-1.32.129-.896.256-1.777.643-2.616.192-.192.192-.48.192-.768-.096-.48.096-.864.384-1.248.192-.288.384-.672.384-.96-.064-.32.043-.555.15-.79.053-.117.106-.234.138-.362a1.06 1.06 0 0 1 0-.768c.038-.173.073-.346.108-.518.138-.692.276-1.383.66-2.074v.096l.288-1.44c.396-.238.465-.672.531-1.086.014-.087.028-.174.045-.258-.192-.48-.192-1.056.384-1.44.096 0 .096-.288.096-.384v-.48c0-.288 0-.576.096-.864.288-1.344.576-2.688.96-4.128l.222-.982.002-.01c.408-1.804.826-3.656 1.312-5.44.048-.24.12-.456.192-.672.072-.216.144-.432.192-.672 0-.288 0-.48.096-.768l.864-5.568.032-.256c.086-.702.181-1.47.352-2.24.192-.864.288-1.728.192-2.592 0-.288 0-.672-.096-.96-.096-1.824-.768-3.264-2.592-3.936-1.632-.672-3.168-1.152-4.992-.576-.864.192-1.632.576-2.4 1.056-1.728 1.152-3.168 2.592-4.608 4.032-1.793 1.931-3.438 3.962-5.077 5.984-.642.793-1.282 1.584-1.931 2.368l-.192.288-3.744 5.184-4.32 6.048c-.405.622-.81 1.25-1.218 1.883-1.04 1.615-2.094 3.25-3.198 4.837l-1.248 2.112a45.997 45.997 0 0 0-2.208 3.648l-1.632 2.592c-.364.624-.727 1.24-1.09 1.853-.974 1.653-1.936 3.283-2.846 4.963-1.536 2.688-2.976 5.376-4.416 8.064-.48.96-.97 1.92-1.46 2.879h-.001c-.982 1.921-1.963 3.841-2.859 5.761l-1.152 2.304-2.4 4.992c-1.92 4.224-3.84 8.448-5.568 12.768l-2.592 6.048c-1.632 4.128-3.264 8.256-4.704 12.384-.074.371-.205.684-.35 1.028l-.13.316-1.248 3.744-.576 1.824c-1.344 3.648-2.208 7.488-2.976 11.232-.128.384-.17.768-.213 1.152-.022.192-.043.384-.075.576v1.248c.096.384.288.576.576.672.384.096.672.096.96-.288-.63-1.168-.585-1.243-.026-2.193l.067-.113.055-.094c.096-.096.096-.192.096-.288-.174-.261-.111-.443-.027-.69.01-.025.018-.051.027-.078l.288-.864H1.92c.096-.192.192-.288.288 0l.576-1.44c.95-3.193 2.132-6.309 3.337-9.487v-.001l.407-1.072c0-.096.048-.192.096-.288.048-.096.096-.192.096-.288l1.383-3.498c.044-.219.146-.425.249-.63.424-1.045.84-2.091 1.254-3.134.994-2.5 1.982-4.987 3.066-7.426a276.374 276.374 0 0 1 2.448-5.544c.567-1.26 1.132-2.514 1.68-3.768l2.592-5.664c.672-1.392 1.368-2.76 2.064-4.128a220.511 220.511 0 0 0 2.064-4.128.482.482 0 0 0 .096-.192c.024-.072.048-.144.096-.192 1.4-3.093 3.024-6.073 4.659-9.07.496-.91.993-1.821 1.485-2.738.864-1.728 1.728-3.456 2.688-5.184.48-.768.96-1.536 1.44-2.4l1.728-2.976c.736-1.216 1.461-2.432 2.187-3.648 1.45-2.432 2.901-4.864 4.437-7.296 1.2-1.824 2.4-3.6 3.6-5.376 1.2-1.776 2.4-3.552 3.6-5.376 2.784-4.032 5.856-7.968 8.928-11.808 2.208-2.784 4.608-5.568 7.296-7.872.864-.768 1.728-1.344 2.592-1.92.288-.192.576-.384.96-.192.384.768.48 1.632.48 2.496 0 3.168-.384 6.144-1.056 9.216-.24 1.2-.528 2.4-.816 3.6-.288 1.2-.576 2.4-.816 3.6-.272 1.468-.667 2.905-1.063 4.346-.303 1.103-.607 2.21-.857 3.334-.288 1.152-.624 2.304-.96 3.456a92.735 92.735 0 0 0-.96 3.456c-.768 2.784-1.44 5.568-2.112 8.352l-1.728 5.76-.576 2.208c-.245.9-.473 1.781-.698 2.653a141.837 141.837 0 0 1-.934 3.491c-.48 1.872-.984 3.72-1.488 5.568-.504 1.848-1.008 3.696-1.488 5.568-.288 1.104-.552 2.232-.816 3.36-.264 1.128-.528 2.256-.816 3.36l-.136.593c-.245 1.074-.5 2.194-.824 3.247a227.964 227.964 0 0 1-.812 3.482 192.351 192.351 0 0 0-1.012 4.39l-1.728 8.064c-.384 2.112-.768 4.224-1.248 6.336 0 .192 0 .288-.096.48l-.864 4.032c0 .144-.024.288-.048.432-.024.144-.048.288-.048.432-.96 5.184-1.92 10.368-2.784 15.552-.208 1.51-.445 3.021-.679 4.516-.197 1.26-.393 2.51-.569 3.74-.159 1.006-.347 2.012-.532 3.002-.15.805-.299 1.599-.428 2.374l-.864 7.584c-.267 2.045-.451 4.172-.63 6.229l-.042.491c0 .48.024.96.048 1.44s.048.96.048 1.44c.096.864.48 1.152 1.344 1.152.228 0 .396.06.598.133h.002c.053.019.108.039.168.059.48.192.864.192 1.152-.384.096-.096.384-.096.576-.096v-1.728c.096-.768.192-1.536.192-2.4.048-.192.048-.384.048-.588 0-.204 0-.42.048-.66.048-.72.12-1.416.192-2.112.072-.696.144-1.392.192-2.112 0-1.039.176-2.033.349-3.014.083-.469.165-.936.227-1.402.187-1.558.455-3.075.725-4.605.146-.827.292-1.657.427-2.499l.576-3.648c.096-.864.288-1.728.48-2.592l.864-5.088c.144-.912.312-1.824.48-2.736.168-.912.336-1.824.48-2.736.487-2.27.905-4.54 1.312-6.753l.224-1.215c.192-.672.288-1.248.384-1.824l.75-3.842a.912.912 0 0 1 .018-.094Zm-1.056-.192c.192-.192.288-.48.384-.768.118-.562.227-1.115.336-1.664.244-1.234.484-2.45.816-3.712.96-4.608 2.016-9.312 3.168-13.92a494.608 494.608 0 0 1 4.032-16.128c1.92-7.392 3.936-14.88 6.048-22.368 1.824-6.624 3.648-13.248 5.28-19.872.336-1.392.648-2.784.96-4.176.312-1.392.624-2.784.96-4.176l.288-1.92c-.096 0-.192 0-.192-.096l-.13.446c-.145.489-.276.933-.35 1.378a302.53 302.53 0 0 1-3.84 15.456c-1.344 5.28-2.784 10.559-4.224 15.839v.001c-1.44 5.184-2.88 10.368-4.224 15.648-.96 3.456-1.824 6.912-2.688 10.368-1.344 5.28-2.592 10.56-3.84 15.839v.001c-.384 1.728-.744 3.456-1.104 5.184a398.93 398.93 0 0 1-1.104 5.184c-.192.96-.384 2.016-.48 2.976-.096.192-.096.288-.096.48Zm-.864-5.088c-.096.48-.288.864-.48 1.248v.576c0-.096-.096-.096-.096-.096 0-.04.017-.096.036-.162.027-.093.06-.206.06-.318.045-.225.069-.429.091-.622.026-.218.05-.422.101-.626.276-1.304.545-2.614.815-3.925.762-3.711 1.527-7.434 2.449-11.051 1.824-7.488 3.648-14.976 5.568-22.368 1.277-4.854 2.61-9.681 3.938-14.495 1.167-4.231 2.331-8.452 3.454-12.673.709-2.54 1.345-5.08 1.975-7.598.395-1.574.787-3.139 1.193-4.69l.864-3.168c0-.096.096-.288.192-.384.131.131.083.307.04.467-.02.074-.04.144-.04.205a1.388 1.388 0 0 0-.105.34 2.958 2.958 0 0 1-.087.332l-.288 2.016h.192s0-.096.096-.192c0 .04 0 .064-.007.085-.01.028-.034.052-.089.107a2.851 2.851 0 0 0-.102.483c-.022.145-.046.3-.09.477l-.288.864c0 .96-.192 1.92-.672 2.784 0 .288 0 .672-.192.96 0 .288 0 .576-.288.864-.192 1.536-.48 3.072-1.152 4.416 0 .384-.096.864-.192 1.248a484.98 484.98 0 0 1-1.488 5.616 484.98 484.98 0 0 0-1.488 5.616c-.192.384-.384.768-.48 1.152-.096.864-.288 1.728-.768 2.496h.096c0 .576-.192 1.152-.48 1.632-.096.96-.192 1.824-.768 2.592.096.288 0 .576-.192.864 0 .576-.096 1.152-.48 1.632l-.007.067c-.094.846-.197 1.777-.665 2.525 0 .288 0 .576-.192.864l-.288.96s-.096.096-.096.192c-.096-.096-.096-.192-.096-.192l-.288.864s0 .096.096.096v.096a.292.292 0 0 1 0 .384v.192h-.096c0 .288-.096.576-.192.864l-.192.192v-.192l-.288.864c0 .384-.096.672-.192.96-.096.288-.192.576-.192.96-.384.48-.48 1.056-.48 1.632h.192c-.06 0-.082.037-.113.087-.02.032-.042.068-.079.105v-.192c-.384 1.152-.768 2.4-.96 3.648-.192.288-.192.48 0 .768v.096c-.192.288-.384.672-.576 1.056l-.288 1.056c-.048.192-.096.408-.144.624-.048.216-.096.432-.144.624l-.288 1.056c-.096.384-.096.672.096 1.056a.482.482 0 0 0-.096.192c-.024.072-.048.144-.096.192-.288.096-.288.384-.288.672l-.288.96a.82.82 0 0 0 0 .672c0 .192 0 .288-.096.384-.288.192-.288.48-.288.768l-.288.864c-.048.24-.12.48-.192.72-.072.24-.144.48-.192.72l-.191.76-.002.006c-.317 1.256-.623 2.468-.863 3.746-.096.288-.096.672-.096.96-.308 1.002-.555 2.003-.789 2.955l-.171.693c-.37 1.48-.661 2.922-.949 4.349v.001c-.16.793-.32 1.582-.491 2.37Zm-10.752-61.92v-.096l-.096.096h.096Zm1.92.576c-.096 0-.096-.096-.096-.096s-.096.096-.192.096l.096.096c.04 0 .064 0 .085-.007.028-.01.052-.034.107-.089Zm-.96 1.056c-.096.192-.192.48-.192.672l.038-.037.036-.033c.161-.152.285-.268.118-.602Zm-.384.864c0 .288-.096.48-.384.864 0-.384.192-.672.384-.864Zm-3.168 5.28c.096-.288.288-.48.48-.672a1.704 1.704 0 0 0-.24.336c-.072.12-.144.24-.24.336a2.663 2.663 0 0 1-.075.137c-.065.113-.117.202-.117.342a.73.73 0 0 1 .192-.479Zm-1.92 3.264.096-.096c.095-.19.285-.38.475-.57l-.571.57v.096Zm-1.152 2.112c-.096.48-.288.768-.672 1.056.192-.384.384-.768.672-1.056Zm-4.8 8.64c.288-.192.384-.384.48-.672-.052.077-.096.148-.137.213a2.457 2.457 0 0 1-.343.459Zm-2.688 1.44h-.096v.096l.096-.096Zm.576 3.072.96-2.112-.672.96c-.242.363-.408.765-.57 1.156a9.96 9.96 0 0 1-.294.668c.192-.192.384-.384.576-.672Zm-3.168 2.016a.733.733 0 0 0 .192-.48.733.733 0 0 0 .192-.48l.096-.096v.096l-.288.576c0 .096-.096.288-.192.384-.096.192-.192.384-.192.48 0-.14.051-.23.117-.343a2.53 2.53 0 0 0 .075-.137Zm1.632.672v.096l-.178.237a.821.821 0 0 1-.11.147l.11-.147a4.05 4.05 0 0 0 .178-.333Zm-2.112.288-.192.48c0-.192.096-.384.192-.48Zm-2.304 8.736c.096-.096.192-.288.288-.48v.096c-.048.048-.096.12-.144.192a1.331 1.331 0 0 1-.144.192l-.192.48c0-.14.051-.23.117-.343a2.53 2.53 0 0 0 .075-.137Zm-2.304 4.992h-.096v.096h.096v-.096Zm30.816 22.176c-.096 1.152-.096 1.152-.48 1.92 0-1.056.096-1.248.48-1.92Zm-1.44 7.392c-.096-.576-.096-.96.192-1.44 0 .48 0 .96-.192 1.44Zm1.344 4.032-.576 3.744-.17.982c-.33 1.905-.669 3.87-1.078 5.834-.096.672-.288 1.44-.48 2.112 0 1.355-.255 2.625-.525 3.97l-.051.254c-.247 1.891-.564 3.782-.89 5.733l-.062.364-.104.623c-.427 2.817-.778 5.634-1.12 8.383l-.128 1.025c-.192 1.536-.299 3.072-.405 4.608v.002c-.054.767-.107 1.535-.171 2.302v1.056c-.384 0-.384-.384-.384-.48.048-.72.072-1.416.096-2.112.024-.696.048-1.392.096-2.112.37-4.526 1.094-8.964 1.833-13.483l.087-.533 1.152-7.68c.096-.672.192-1.344.576-1.92 0-.672 0-1.248.192-1.92L48 114.113c.048-.192.12-.36.192-.528.072-.168.144-.336.192-.528 0-.48 0-.864.192-1.248.096-.48.168-.984.24-1.488.072-.504.144-1.008.24-1.488 0-.192.096-.384.192-.48 0 1.152-.192 2.4-.672 3.456 0 .384 0 .864-.192 1.248Zm-2.784 3.36c.096-1.248.192-2.4.672-3.648.096-1.152.192-2.304.672-3.456 0 1.152-.288 2.4-.672 3.456-.014.177-.025.353-.037.53-.07 1.069-.14 2.129-.635 3.118 0 .48 0 .96-.192 1.44 0 .672 0 1.344-.48 2.208 0-.96.096-1.536.48-2.208-.096-.48 0-.96.192-1.44Zm-42.336-5.088.096-.096v-.096c0 .096-.096.192-.096.192Zm-.864 2.976.096-.096v-.192c0 .096 0 .096-.096.192v.096Zm-1.152 4.032v.864a44.586 44.586 0 0 0-.384 1.728c-.12.576-.24 1.152-.384 1.728-.192-.384-.096-.864 0-1.344l.04-.207c.085-.432.179-.916.344-1.329.048-.24.12-.48.192-.72.072-.24.144-.48.192-.72 0-.864.288-1.728.768-2.496-.026.128-.05.253-.073.375-.151.79-.28 1.456-.695 2.121Zm40.512 23.04c-.096.576-.096 1.056-.096 1.632-.217.652-.27 1.359-.325 2.079-.018.234-.035.469-.059.705-.096.384-.096.768-.096 1.152l.003.003c.052.054.075.137.102.233.021.076.045.16.087.244h-.096c0-.19 0-.38-.093-.477l-.003-.003c-.192.576-.192 1.152-.096 1.728.096.768.096 1.44-.096 2.208 0-.384 0-.672-.096-.96H40.8c0 .336.024.672.048 1.008.024.336.048.672.048 1.008 0 .16.01.32.021.48.022.32.043.64-.021.96 0 .119-.073.201-.175.314-.062.07-.136.152-.209.262-.096-.192-.192-.384-.192-.48 0-.164-.011-.327-.022-.487-.021-.309-.041-.604.022-.857.175-2.45.43-4.821.692-7.257l.076-.711c.169-1.773.412-3.546.664-5.384l.104-.76c.144-.96.312-1.92.48-2.88.168-.96.336-1.92.48-2.88 0-.18.075-.322.154-.473.048-.092.098-.187.134-.295-.096-.96 0-1.92.384-2.784 0-.946.166-1.851.334-2.769.088-.479.176-.961.242-1.455.096-.672.192-1.248.384-1.92 0-.192.096-.384.192-.576-.033.23-.054.472-.077.717-.042.47-.085.953-.211 1.395a352.802 352.802 0 0 0-.576 3.84l-.288.768c0 .96-.096 1.92-.384 2.784-.048.288-.072.6-.096.912-.024.312-.048.624-.096.912l-1.152 8.064ZM72.576 12.353c.048.242.072.362.047.47-.024.108-.096.204-.239.394.054-.162.078-.293.105-.445.021-.12.045-.25.087-.419Zm-23.232 95.712-.03-.057c-.082-.156-.132-.251.126-.423.079.158.028.251-.046.386l-.05.094Zm-4.608 13.152c.154.154.061.307-.03.461a1.72 1.72 0 0 0-.066.115c.041-.082.03-.165.018-.247-.016-.11-.032-.219.078-.329Z" fill="#000"/></svg>