<svg width="237" height="64" viewBox="0 0 237 64" fill="none" xmlns="http://www.w3.org/2000/svg">
<path d="M1.3 47C1.99333 46.168 2.34 44.296 2.34 41.384V22.976C2.34 20.064 1.99333 18.192 1.3 17.36C2.72133 17.6027 4.19467 17.724 5.72 17.724C7.31467 17.724 8.788 17.6027 10.14 17.36C9.44667 18.192 9.1 20.064 9.1 22.976V46.22H10.088C14.1787 46.22 17.264 45.8387 19.344 45.076C21.424 44.2787 23.0533 43.36 24.232 42.32C23.9893 43.1867 23.868 44.036 23.868 44.868C23.868 45.7 23.9893 46.4107 24.232 47H1.3ZM37.2673 47.26C33.8007 47.26 31.0273 46.3587 28.9473 44.556C26.8673 42.7187 25.8273 39.98 25.8273 36.34C25.8273 32.7347 26.9367 30.0133 29.1553 28.176C31.4087 26.3387 34.286 25.42 37.7873 25.42C41.254 25.42 44.0273 26.3387 46.1073 28.176C48.1873 29.9787 49.2273 32.7 49.2273 36.34C49.2273 39.9453 48.1007 42.6667 45.8473 44.504C43.6287 46.3413 40.7687 47.26 37.2673 47.26ZM36.6953 46.324C37.8047 46.324 38.7927 45.8213 39.6593 44.816C40.5607 43.8107 41.254 42.4413 41.7393 40.708C42.2247 38.9747 42.4673 37.0507 42.4673 34.936C42.4673 32.3013 42.1033 30.2213 41.3753 28.696C40.6473 27.136 39.642 26.356 38.3593 26.356C37.25 26.356 36.2447 26.8587 35.3433 27.864C34.4767 28.8693 33.8007 30.2387 33.3153 31.972C32.83 33.7053 32.5873 35.6293 32.5873 37.744C32.5873 40.3787 32.9513 42.476 33.6793 44.036C34.4073 45.5613 35.4127 46.324 36.6953 46.324ZM63.5152 47.26C59.9098 47.26 57.1018 46.2547 55.0912 44.244C53.0805 42.1987 52.0752 39.5293 52.0752 36.236C52.0752 33.7053 52.5952 31.6427 53.6352 30.048C54.7098 28.4187 56.0618 27.24 57.6912 26.512C59.3552 25.784 61.1232 25.42 62.9952 25.42C63.9658 25.42 65.3872 25.576 67.2592 25.888C68.4725 26.1307 69.4258 26.252 70.1192 26.252C71.0552 26.252 71.7658 26.0613 72.2512 25.68C72.0778 26.9973 71.7138 28.124 71.1592 29.06C70.6045 29.9613 69.7552 30.412 68.6112 30.412C67.7792 30.412 67.0858 30.2213 66.5312 29.84C65.9765 29.424 65.3352 28.8173 64.6072 28.02C64.0872 27.4307 63.6538 27.0147 63.3072 26.772C62.9952 26.4947 62.6312 26.356 62.2152 26.356C61.2098 26.356 60.3952 27.2227 59.7712 28.956C59.1472 30.6893 58.8352 32.7173 58.8352 35.04C58.8352 37.7093 59.4245 39.9973 60.6032 41.904C61.8165 43.776 63.6365 44.712 66.0632 44.712C68.5592 44.712 70.5698 43.4293 72.0952 40.864C71.8525 42.4587 71.0552 43.932 69.7032 45.284C68.3858 46.6013 66.3232 47.26 63.5152 47.26ZM102.223 47.26C101.148 47.26 100.091 47.208 99.0511 47.104C98.0457 47 97.1097 46.896 96.2431 46.792C95.9311 46.7573 95.3071 46.688 94.3711 46.584C93.4351 46.48 92.5164 46.428 91.6151 46.428C90.9911 46.428 90.4017 46.48 89.8471 46.584C89.2924 46.688 88.9284 46.8267 88.7551 47V46.896C89.0324 44.8507 89.2057 42.9613 89.2751 41.228C89.3444 39.4947 89.3791 36.8427 89.3791 33.272V22.976C89.3791 20.064 89.0324 18.192 88.3391 17.36H99.1031C104.962 17.36 109.122 18.712 111.583 21.416C114.079 24.12 115.327 27.8813 115.327 32.7C115.327 37.9 114.166 41.6267 111.843 43.88C109.555 46.1333 106.348 47.26 102.223 47.26ZM103.055 46.48C104.58 46.48 105.863 45.492 106.903 43.516C107.943 41.5053 108.463 37.9 108.463 32.7C108.463 27.916 107.787 24.2933 106.435 21.832C105.118 19.3707 102.674 18.14 99.1031 18.14H96.1391V43.308C96.5551 43.4813 97.0231 43.724 97.5431 44.036C98.0631 44.348 98.4444 44.5733 98.6871 44.712C99.5884 45.3013 100.351 45.752 100.975 46.064C101.599 46.3413 102.292 46.48 103.055 46.48ZM124.405 47.26C122.429 47.26 120.765 46.792 119.413 45.856C118.095 44.8853 117.437 43.5333 117.437 41.8C117.437 40.4827 117.783 39.3733 118.477 38.472C119.205 37.5707 120.071 36.86 121.077 36.34C122.117 35.7853 123.521 35.1613 125.289 34.468C127.299 33.6707 128.877 32.9253 130.021 32.232C131.199 31.5387 132.049 30.6373 132.569 29.528V28.696C132.569 27.7947 132.465 27.1533 132.257 26.772C132.049 26.3907 131.737 26.2 131.321 26.2C131.009 26.2 130.679 26.3387 130.333 26.616C129.986 26.8587 129.553 27.2573 129.033 27.812C128.201 28.6787 127.438 29.3547 126.745 29.84C126.051 30.2907 125.237 30.516 124.301 30.516C122.879 30.516 121.77 30.0653 120.973 29.164C120.21 28.2627 119.829 27.1013 119.829 25.68C120.834 26.1307 122.065 26.356 123.521 26.356C124.457 26.356 125.549 26.2 126.797 25.888C126.935 25.8533 127.386 25.7667 128.149 25.628C128.911 25.4893 129.726 25.42 130.593 25.42C132.638 25.42 134.597 25.9747 136.469 27.084C138.375 28.1587 139.329 30.4987 139.329 34.104V41.176C139.329 42.4587 139.433 43.6373 139.641 44.712C139.883 45.7867 140.178 46.5493 140.525 47C138.445 47 136.833 46.8613 135.689 46.584C134.579 46.3067 133.782 45.8213 133.297 45.128C132.811 44.4 132.569 43.3427 132.569 41.956V41.592C131.945 43.3947 130.905 44.7987 129.449 45.804C128.027 46.7747 126.346 47.26 124.405 47.26ZM127.213 44.244C128.357 44.244 129.466 43.7413 130.541 42.736C131.65 41.696 132.326 40.5 132.569 39.148V31.296C132.187 32.0933 131.667 32.7867 131.009 33.376C130.385 33.9653 129.535 34.676 128.461 35.508C127.039 36.548 125.965 37.5013 125.237 38.368C124.543 39.2 124.197 40.2053 124.197 41.384C124.197 42.2853 124.474 42.996 125.029 43.516C125.618 44.0013 126.346 44.244 127.213 44.244ZM143.132 47C143.825 46.168 144.172 44.296 144.172 41.384V34C144.172 31.6427 143.825 30.048 143.132 29.216C144.553 29.0427 146.061 28.6267 147.656 27.968C149.285 27.3093 150.585 26.5467 151.556 25.68C151.313 27.032 151.14 28.3147 151.036 29.528C150.967 30.7067 150.932 32.1973 150.932 34V36.86C152.457 29.2333 155.837 25.42 161.072 25.42C163.117 25.42 164.608 25.9227 165.544 26.928C166.48 27.8987 167.035 28.8693 167.208 29.84C167.381 30.8107 167.468 31.8333 167.468 32.908C167.468 33.4973 167.364 34.624 167.156 36.288C166.844 38.8533 166.688 40.9507 166.688 42.58C166.688 43.62 166.757 44.556 166.896 45.388C167.069 46.1853 167.26 46.7227 167.468 47C165.908 46.8267 164.452 46.3587 163.1 45.596C161.783 44.7987 161.124 43.6027 161.124 42.008C161.124 40.864 161.401 39.8413 161.956 38.94C162.511 38.0387 163.291 36.9987 164.296 35.82C165.059 34.9187 165.613 34.208 165.96 33.688C166.307 33.1333 166.48 32.5787 166.48 32.024C166.48 30.9147 165.44 30.36 163.36 30.36C160.344 30.36 157.727 31.3307 155.508 33.272C153.324 35.1787 151.799 37.5707 150.932 40.448V41.384C150.932 44.296 151.279 46.168 151.972 47H143.132ZM181.578 58.18C178.562 58.18 175.997 57.6773 173.882 56.672C171.767 55.6667 170.71 54.2627 170.71 52.46C170.71 51.7667 170.953 51.056 171.438 50.328C171.923 49.6347 172.721 49.028 173.83 48.508C174.974 48.0227 176.447 47.78 178.25 47.78C178.007 48.2653 177.817 48.8547 177.678 49.548C177.539 50.276 177.47 51.004 177.47 51.732C177.47 53.5347 177.903 54.9213 178.77 55.892C179.637 56.8973 180.642 57.4 181.786 57.4C183.103 57.4 184.126 56.776 184.854 55.528C185.582 54.3147 185.946 52.8067 185.946 51.004C185.946 48.404 185.391 46.688 184.282 45.856C183.207 45.024 182.133 44.66 181.058 44.764C181.162 44.1747 181.387 43.7067 181.734 43.36C182.081 42.9787 182.601 42.528 183.294 42.008C184.091 41.4187 184.733 40.864 185.218 40.344C185.738 39.7893 186.189 38.992 186.57 37.952C186.951 36.912 187.142 35.5773 187.142 33.948C187.142 31.7987 186.795 29.9787 186.102 28.488C185.409 26.9627 184.282 26.2 182.722 26.2C181.058 26.2 179.758 27.032 178.822 28.696C177.886 30.36 177.418 32.44 177.418 34.936C177.418 37.1893 177.747 38.836 178.406 39.876C179.099 40.916 179.914 41.696 180.85 42.216C177.869 42.216 175.407 41.6267 173.466 40.448C171.525 39.2693 170.554 37.328 170.554 34.624C170.554 31.7813 171.646 29.5453 173.83 27.916C176.014 26.252 178.874 25.42 182.41 25.42C183.173 25.42 183.918 25.212 184.646 24.796C185.409 24.3453 186.033 23.6867 186.518 22.82C187.003 21.9533 187.246 20.9307 187.246 19.752C187.246 18.92 187.125 18.2093 186.882 17.62C186.674 16.996 186.362 16.3893 185.946 15.8C187.749 15.8 189.205 16.06 190.314 16.58C191.458 17.0653 192.273 17.672 192.758 18.4C193.243 19.0933 193.486 19.7867 193.486 20.48C193.486 21.8667 192.845 23.028 191.562 23.964C190.314 24.8653 188.65 25.5067 186.57 25.888C188.893 26.4427 190.713 27.4653 192.03 28.956C193.347 30.4467 194.006 32.284 194.006 34.468C194.006 36.2707 193.59 37.7093 192.758 38.784C191.926 39.8587 190.938 40.656 189.794 41.176C188.685 41.6613 187.315 42.1293 185.686 42.58C184.681 42.8573 183.935 43.0827 183.45 43.256C182.999 43.4293 182.687 43.6547 182.514 43.932C183.311 43.8627 184.525 44.0013 186.154 44.348C187.818 44.6947 189.343 45.3707 190.73 46.376C192.117 47.3813 192.81 48.8027 192.81 50.64C192.81 51.9573 192.411 53.188 191.614 54.332C190.851 55.476 189.621 56.3947 187.922 57.088C186.258 57.816 184.143 58.18 181.578 58.18ZM220.061 3.75977H225.621V55.6074H220.061V3.75977Z" fill="white"/>
</svg>
